<?xml version="1.0" encoding="UTF-8"?>
<!DOCTYPE svg PUBLIC "-//W3C//DTD SVG 1.1//EN" "http://www.w3.org/Graphics/SVG/1.1/DTD/svg11.dtd">
<svg xmlns="http://www.w3.org/2000/svg" version="1.1" width="678px" height="516px" style="shape-rendering:geometricPrecision; text-rendering:geometricPrecision; image-rendering:optimizeQuality; fill-rule:evenodd; clip-rule:evenodd" xmlns:xlink="http://www.w3.org/1999/xlink">
<g><path style="opacity:0.968" fill="#cccccc" d="M 305.5,11.5 C 310.719,15.5176 316.386,19.0176 322.5,22C 333.167,24 343.833,24 354.5,22C 360.614,19.0176 366.281,15.5176 371.5,11.5C 383.89,44.0377 407.556,60.2044 442.5,60C 430.84,72.4782 425.84,87.3115 427.5,104.5C 427.464,109.61 428.131,114.61 429.5,119.5C 427.473,119.662 425.473,119.495 423.5,119C 418.054,113.554 412.554,108.054 407,102.5C 402.277,96.888 398.444,90.7213 395.5,84C 371.521,85.0096 352.521,75.843 338.5,56.5C 324.479,75.843 305.479,85.0096 281.5,84C 278.556,90.7213 274.723,96.888 270,102.5C 264.446,108.054 258.946,113.554 253.5,119C 251.527,119.495 249.527,119.662 247.5,119.5C 249.799,107.906 249.966,96.2396 248,84.5C 245.705,75.073 241.205,66.9064 234.5,60C 269.444,60.2044 293.11,44.0377 305.5,11.5 Z"/></g>
<g><path style="opacity:0.96" fill="#cccccc" d="M 142.5,63.5 C 146.262,67.0834 150.262,70.5834 154.5,74C 158.381,76.1072 162.381,77.9405 166.5,79.5C 171.944,76.5512 176.61,72.7179 180.5,68C 181.5,67.3333 182.5,67.3333 183.5,68C 189.022,80.2114 194.688,92.3781 200.5,104.5C 200.333,104.833 200.167,105.167 200,105.5C 187.795,94.1717 175.462,93.8384 163,104.5C 160.661,108.687 159.495,113.187 159.5,118C 160.293,127.138 162.293,135.971 165.5,144.5C 155.301,141.508 147.468,144.508 142,153.5C 134.333,166.168 131.666,179.835 134,194.5C 136.303,209.243 140.137,223.576 145.5,237.5C 144.307,239.384 142.641,239.884 140.5,239C 100.119,190.408 59.6191,141.908 19,93.5C 18.3333,91.8333 18.3333,90.1667 19,88.5C 32.5813,100.712 47.7479,110.545 64.5,118C 85.1033,125.105 105.103,123.772 124.5,114C 137.665,99.8141 143.665,82.9807 142.5,63.5 Z"/></g>
<g><path style="opacity:0.96" fill="#cccccc" d="M 532.5,63.5 C 533.644,78.9226 538.144,93.5892 546,107.5C 548.167,109.667 550.333,111.833 552.5,114C 579.372,126.642 605.372,124.976 630.5,109C 639.949,102.552 649.116,95.7185 658,88.5C 658.667,90.1667 658.667,91.8333 658,93.5C 617.381,141.908 576.881,190.408 536.5,239C 534.359,239.884 532.693,239.384 531.5,237.5C 536.863,223.576 540.697,209.243 543,194.5C 545.894,176.483 541.394,160.65 529.5,147C 523.939,143.388 517.939,142.554 511.5,144.5C 514.707,135.971 516.707,127.138 517.5,118C 517.093,104.426 510.093,97.2595 496.5,96.5C 488.903,97.2162 482.403,100.216 477,105.5C 476.833,105.167 476.667,104.833 476.5,104.5C 482.312,92.3781 487.978,80.2114 493.5,68C 494.5,67.3333 495.5,67.3333 496.5,68C 500.39,72.7179 505.056,76.5512 510.5,79.5C 519.864,76.7812 527.197,71.4479 532.5,63.5 Z"/></g>
<g><path style="opacity:0.992" fill="#cccbcb" d="M 505.5,350.5 C 501.557,357.108 497.224,363.441 492.5,369.5C 485.833,369.5 479.167,369.5 472.5,369.5C 470.606,368.952 468.94,367.952 467.5,366.5C 466.824,367.602 466.158,368.602 465.5,369.5C 425.167,369.5 384.833,369.5 344.5,369.5C 343.163,368.685 342.163,367.518 341.5,366C 340.552,365.517 339.552,365.351 338.5,365.5C 337.448,365.351 336.448,365.517 335.5,366C 334.837,367.518 333.837,368.685 332.5,369.5C 292.167,369.5 251.833,369.5 211.5,369.5C 210.842,368.602 210.176,367.602 209.5,366.5C 208.06,367.952 206.394,368.952 204.5,369.5C 197.833,369.5 191.167,369.5 184.5,369.5C 179.776,363.441 175.443,357.108 171.5,350.5C 171.333,284.499 171.5,218.499 172,152.5C 173.539,145.287 177.705,140.12 184.5,137C 287.167,136.333 389.833,136.333 492.5,137C 499.295,140.12 503.461,145.287 505,152.5C 505.5,218.499 505.667,284.499 505.5,350.5 Z M 213.5,167.5 C 296.834,167.333 380.167,167.5 463.5,168C 476.339,173.847 480.172,183.347 475,196.5C 469.738,204.49 462.238,208.324 452.5,208C 376.5,208.667 300.5,208.667 224.5,208C 205.92,207.104 198.087,197.604 201,179.5C 203.744,173.921 207.911,169.921 213.5,167.5 Z"/></g>
<g><path style="opacity:0.979" fill="#ffed7f" d="M 79.5,274.5 C 76.1807,287.444 73.0141,300.444 70,313.5C 69.4806,314.516 68.6473,315.182 67.5,315.5C 53.1599,308.665 39.1599,301.331 25.5,293.5C 16.4064,270.072 16.4064,246.239 25.5,222C 29.6729,222.502 33.6729,223.835 37.5,226C 55.3262,238.983 69.3262,255.15 79.5,274.5 Z"/></g>
<g><path style="opacity:0.979" fill="#ffed7f" d="M 651.5,293.5 C 637.84,301.331 623.84,308.665 609.5,315.5C 608.353,315.182 607.519,314.516 607,313.5C 603.986,300.444 600.819,287.444 597.5,274.5C 607.674,255.15 621.674,238.983 639.5,226C 643.327,223.835 647.327,222.502 651.5,222C 660.594,246.239 660.594,270.072 651.5,293.5 Z"/></g>
<g><path style="opacity:0.993" fill="#ffe633" d="M 117.5,310.5 C 116.539,326.209 113.206,341.376 107.5,356C 98.1441,359.338 88.4774,361.171 78.5,361.5C 66.9976,360.361 55.6643,358.361 44.5,355.5C 23.8499,341.467 10.5166,322.134 4.5,297.5C 4.60816,296.558 4.94149,295.725 5.5,295C 12.1556,294.289 18.8223,293.789 25.5,293.5C 39.1599,301.331 53.1599,308.665 67.5,315.5C 68.6473,315.182 69.4806,314.516 70,313.5C 73.0141,300.444 76.1807,287.444 79.5,274.5C 82.8048,267.219 86.1381,259.886 89.5,252.5C 90.365,251.417 91.365,251.251 92.5,252C 103.938,265.707 112.105,281.207 117,298.5C 117.499,302.486 117.666,306.486 117.5,310.5 Z"/></g>
<g><path style="opacity:0.993" fill="#ffe633" d="M 597.5,274.5 C 600.819,287.444 603.986,300.444 607,313.5C 607.519,314.516 608.353,315.182 609.5,315.5C 623.84,308.665 637.84,301.331 651.5,293.5C 658.178,293.789 664.844,294.289 671.5,295C 672.443,297.8 672.276,300.634 671,303.5C 664.189,325.522 651.356,342.856 632.5,355.5C 621.348,358.397 610.015,360.397 598.5,361.5C 588.967,361.206 579.633,359.706 570.5,357C 566.489,348.966 563.655,340.466 562,331.5C 561.076,324.496 560.243,317.496 559.5,310.5C 558.879,301.773 560.379,293.44 564,285.5C 569.643,273.541 576.476,262.375 584.5,252C 585.635,251.251 586.635,251.417 587.5,252.5C 590.862,259.886 594.195,267.219 597.5,274.5 Z"/></g>
<g><path style="opacity:0.988" fill="#fed000" d="M 143.5,348.5 C 143.458,361.21 141.291,373.543 137,385.5C 135.5,387 134,388.5 132.5,390C 115.908,395.137 98.908,397.303 81.5,396.5C 66.608,393.386 53.608,386.553 42.5,376C 37.1335,370.968 32.1335,365.635 27.5,360C 33.3221,358.962 38.9887,357.462 44.5,355.5C 55.6643,358.361 66.9976,360.361 78.5,361.5C 88.4774,361.171 98.1441,359.338 107.5,356C 113.206,341.376 116.539,326.209 117.5,310.5C 120.328,305.537 122.494,300.203 124,294.5C 133.003,306.508 139.336,319.841 143,334.5C 143.499,339.155 143.666,343.821 143.5,348.5 Z"/></g>
<g><path style="opacity:0.988" fill="#fecf00" d="M 559.5,310.5 C 560.243,317.496 561.076,324.496 562,331.5C 563.655,340.466 566.489,348.966 570.5,357C 579.633,359.706 588.967,361.206 598.5,361.5C 610.015,360.397 621.348,358.397 632.5,355.5C 638.011,357.462 643.678,358.962 649.5,360C 638.585,373.253 625.585,383.919 610.5,392C 605.423,393.68 600.423,395.18 595.5,396.5C 578.063,397.416 561.063,395.25 544.5,390C 541.131,387.635 538.964,384.468 538,380.5C 535.005,370.03 533.505,359.364 533.5,348.5C 532.78,338.042 534.614,328.042 539,318.5C 543.162,310.172 547.829,302.172 553,294.5C 554.506,300.203 556.672,305.537 559.5,310.5 Z"/></g>
<g><path style="opacity:0.991" fill="#f7b000" d="M 171.5,350.5 C 175.443,357.108 179.776,363.441 184.5,369.5C 186.623,372.867 187.956,376.534 188.5,380.5C 188.666,389.839 188.5,399.173 188,408.5C 187.798,410.256 187.298,411.922 186.5,413.5C 165.825,425.841 143.825,434.841 120.5,440.5C 95.9045,439.452 75.7378,429.452 60,410.5C 59.3828,409.551 59.5494,408.718 60.5,408C 64.6079,406.973 68.6079,405.64 72.5,404C 75.5309,401.492 78.5309,398.992 81.5,396.5C 98.908,397.303 115.908,395.137 132.5,390C 134,388.5 135.5,387 137,385.5C 141.291,373.543 143.458,361.21 143.5,348.5C 149.094,343.244 154.76,337.911 160.5,332.5C 164.178,338.528 167.844,344.528 171.5,350.5 Z"/></g>
<g><path style="opacity:0.991" fill="#f7b000" d="M 533.5,348.5 C 533.505,359.364 535.005,370.03 538,380.5C 538.964,384.468 541.131,387.635 544.5,390C 561.063,395.25 578.063,397.416 595.5,396.5C 598.469,398.992 601.469,401.492 604.5,404C 608.392,405.64 612.392,406.973 616.5,408C 617.451,408.718 617.617,409.551 617,410.5C 601.262,429.452 581.096,439.452 556.5,440.5C 533.136,434.818 511.136,425.818 490.5,413.5C 489.702,411.922 489.202,410.256 489,408.5C 488.5,399.173 488.334,389.839 488.5,380.5C 489.044,376.534 490.377,372.867 492.5,369.5C 497.224,363.441 501.557,357.108 505.5,350.5C 509.156,344.528 512.822,338.528 516.5,332.5C 522.24,337.911 527.906,343.244 533.5,348.5 Z"/></g>
<g><path style="opacity:0.982" fill="#d01a41" d="M 338.5,365.5 C 338.672,377.52 338.338,389.52 337.5,401.5C 336.833,401.5 336.5,401.833 336.5,402.5C 332.321,410.352 327.988,418.185 323.5,426C 314.857,427.895 306.19,429.729 297.5,431.5C 285.565,428.516 273.565,425.85 261.5,423.5C 261.5,422.5 261.5,421.5 261.5,420.5C 278.719,417.723 295.719,414.057 312.5,409.5C 319.18,396.14 325.847,382.807 332.5,369.5C 333.837,368.685 334.837,367.518 335.5,366C 336.448,365.517 337.448,365.351 338.5,365.5 Z"/></g>
<g><path style="opacity:0.978" fill="#fe2f5c" d="M 338.5,365.5 C 339.552,365.351 340.552,365.517 341.5,366C 342.163,367.518 343.163,368.685 344.5,369.5C 351.153,382.807 357.82,396.14 364.5,409.5C 381.528,413.769 398.528,417.769 415.5,421.5C 403.516,425.163 391.516,428.83 379.5,432.5C 370.838,430.331 362.172,427.831 353.5,425C 349.439,418.378 345.772,411.545 342.5,404.5C 341.952,401.916 340.285,400.916 337.5,401.5C 338.338,389.52 338.672,377.52 338.5,365.5 Z"/></g>
<g><path style="opacity:0.987" fill="#d48701" d="M 211.5,369.5 C 213.739,378.392 218.072,386.059 224.5,392.5C 227.779,416.041 223.446,438.041 211.5,458.5C 195.673,462.43 179.673,463.597 163.5,462C 162.328,461.581 161.328,460.915 160.5,460C 161.833,458 163.167,456 164.5,454C 146.958,457.873 129.624,456.873 112.5,451C 111.328,450.581 110.328,449.915 109.5,449C 113.067,445.92 116.733,443.087 120.5,440.5C 143.825,434.841 165.825,425.841 186.5,413.5C 187.298,411.922 187.798,410.256 188,408.5C 188.5,399.173 188.666,389.839 188.5,380.5C 189.29,381.609 189.79,382.942 190,384.5C 193.693,378.309 198.526,373.309 204.5,369.5C 206.394,368.952 208.06,367.952 209.5,366.5C 210.176,367.602 210.842,368.602 211.5,369.5 Z"/></g>
<g><path style="opacity:0.987" fill="#d48701" d="M 472.5,369.5 C 478.474,373.309 483.307,378.309 487,384.5C 487.21,382.942 487.71,381.609 488.5,380.5C 488.334,389.839 488.5,399.173 489,408.5C 489.202,410.256 489.702,411.922 490.5,413.5C 511.136,425.818 533.136,434.818 556.5,440.5C 560.267,443.087 563.933,445.92 567.5,449C 550.234,456.702 532.4,458.202 514,453.5C 513.5,453.667 513,453.833 512.5,454C 513.833,456 515.167,458 516.5,460C 515.672,460.915 514.672,461.581 513.5,462C 497.327,463.597 481.327,462.43 465.5,458.5C 453.554,438.041 449.221,416.041 452.5,392.5C 458.928,386.059 463.261,378.392 465.5,369.5C 466.158,368.602 466.824,367.602 467.5,366.5C 468.94,367.952 470.606,368.952 472.5,369.5 Z"/></g>
<g><path style="opacity:0.986" fill="#b96500" d="M 224.5,392.5 C 225.401,393.29 226.068,394.29 226.5,395.5C 229.528,403.221 233.361,410.554 238,417.5C 248.843,433.196 259.677,448.862 270.5,464.5C 250.736,468.766 230.736,473.1 210.5,477.5C 211.372,471.211 211.705,464.878 211.5,458.5C 223.446,438.041 227.779,416.041 224.5,392.5 Z"/></g>
<g><path style="opacity:0.975" fill="#994000" d="M 226.5,395.5 C 236.659,406.993 248.326,416.66 261.5,424.5C 272.429,437.27 283.596,449.936 295,462.5C 295.566,467.632 295.066,472.632 293.5,477.5C 286.293,472.395 278.626,468.062 270.5,464.5C 259.677,448.862 248.843,433.196 238,417.5C 233.361,410.554 229.528,403.221 226.5,395.5 Z"/></g>
<g><path style="opacity:0.975" fill="#994000" d="M 450.5,395.5 C 447.472,403.221 443.639,410.554 439,417.5C 428.157,433.196 417.323,448.862 406.5,464.5C 398.374,468.062 390.707,472.395 383.5,477.5C 381.934,472.632 381.434,467.632 382,462.5C 393.404,449.936 404.571,437.27 415.5,424.5C 428.674,416.66 440.341,406.993 450.5,395.5 Z"/></g>
<g><path style="opacity:0.986" fill="#b96500" d="M 452.5,392.5 C 449.221,416.041 453.554,438.041 465.5,458.5C 465.295,464.878 465.628,471.211 466.5,477.5C 446.264,473.1 426.264,468.766 406.5,464.5C 417.323,448.862 428.157,433.196 439,417.5C 443.639,410.554 447.472,403.221 450.5,395.5C 450.932,394.29 451.599,393.29 452.5,392.5 Z"/></g>
<g><path style="opacity:1" fill="#fc9db0" d="M 336.5,402.5 C 336.5,401.833 336.833,401.5 337.5,401.5C 340.285,400.916 341.952,401.916 342.5,404.5C 340.858,402.919 338.858,402.253 336.5,402.5 Z"/></g>
<g><path style="opacity:1" fill="#fdfcfc" d="M 336.5,402.5 C 338.858,402.253 340.858,402.919 342.5,404.5C 345.772,411.545 349.439,418.378 353.5,425C 362.172,427.831 370.838,430.331 379.5,432.5C 379.291,433.922 378.791,435.255 378,436.5C 372.667,442.5 367.333,448.5 362,454.5C 362.464,462.246 363.631,469.912 365.5,477.5C 365.5,479.167 365.5,480.833 365.5,482.5C 356.314,479.329 347.148,475.995 338,472.5C 331.687,474.605 325.52,477.105 319.5,480C 316.937,481.079 314.271,481.579 311.5,481.5C 311.5,480.167 311.5,478.833 311.5,477.5C 313.465,469.581 314.631,461.581 315,453.5C 309.966,448.801 305.3,443.801 301,438.5C 299.121,436.473 297.954,434.14 297.5,431.5C 306.19,429.729 314.857,427.895 323.5,426C 327.988,418.185 332.321,410.352 336.5,402.5 Z"/></g>
<g><path style="opacity:0.995" fill="#cf1c41" d="M 415.5,421.5 C 415.5,422.5 415.5,423.5 415.5,424.5C 404.571,437.27 393.404,449.936 382,462.5C 381.434,467.632 381.934,472.632 383.5,477.5C 385.383,488.13 387.049,498.797 388.5,509.5C 379.171,499.868 371.505,489.201 365.5,477.5C 363.631,469.912 362.464,462.246 362,454.5C 367.333,448.5 372.667,442.5 378,436.5C 378.791,435.255 379.291,433.922 379.5,432.5C 391.516,428.83 403.516,425.163 415.5,421.5 Z"/></g>
<g><path style="opacity:0.994" fill="#ac1332" d="M 261.5,424.5 C 261.5,424.167 261.5,423.833 261.5,423.5C 273.565,425.85 285.565,428.516 297.5,431.5C 297.954,434.14 299.121,436.473 301,438.5C 305.3,443.801 309.966,448.801 315,453.5C 314.631,461.581 313.465,469.581 311.5,477.5C 304.249,489.781 296.916,502.115 289.5,514.5C 288.359,511.36 288.192,508.027 289,504.5C 290.502,495.487 292.002,486.487 293.5,477.5C 295.066,472.632 295.566,467.632 295,462.5C 283.596,449.936 272.429,437.27 261.5,424.5 Z"/></g>
<g><path style="opacity:0.983" fill="#930f2a" d="M 365.5,477.5 C 371.505,489.201 379.171,499.868 388.5,509.5C 388.5,511.167 388.5,512.833 388.5,514.5C 385.813,514.664 383.146,514.497 380.5,514C 366.61,507.888 352.61,502.054 338.5,496.5C 324.39,502.054 310.39,507.888 296.5,514C 294.19,514.497 291.857,514.663 289.5,514.5C 296.916,502.115 304.249,489.781 311.5,477.5C 311.5,478.833 311.5,480.167 311.5,481.5C 314.271,481.579 316.937,481.079 319.5,480C 325.52,477.105 331.687,474.605 338,472.5C 347.148,475.995 356.314,479.329 365.5,482.5C 365.5,480.833 365.5,479.167 365.5,477.5 Z"/></g>
</svg>
