<svg xmlns="http://www.w3.org/2000/svg" width="656" height="1969" viewBox="0 0 656 1969" version="1.1"><path d="M 98.324 47.638 C 92.205 49.806, 85.589 56.133, 82.064 63.189 C 79.211 68.897, 79 70.066, 79 80.160 C 79 91, 79 91, 73.500 91 C 69.333 91, 67.515 91.485, 66 93 C 64.088 94.912, 64 96.333, 64 125.461 C 64 155.509, 64.030 155.950, 66.189 157.961 C 68.317 159.944, 69.499 160, 109.234 160 C 150.091 160, 150.091 160, 152.545 157.545 C 155 155.091, 155 155.091, 155 125.500 C 155 95.909, 155 95.909, 152.545 93.455 C 150.530 91.439, 149.100 91, 144.545 91 C 139 91, 139 91, 139 80.160 C 139 70.079, 138.787 68.892, 135.953 63.222 C 130.497 52.304, 120.527 45.966, 109 46.089 C 105.425 46.127, 100.621 46.824, 98.324 47.638 M 101.500 59.164 C 98.314 60.922, 93.943 65.268, 92.411 68.200 C 91.469 70.003, 91 74.243, 91 80.950 C 91 91, 91 91, 109 91 C 127 91, 127 91, 127 80.934 C 127 75.398, 126.495 69.886, 125.878 68.684 C 124.219 65.455, 119.874 61.017, 116.800 59.411 C 113.608 57.743, 104.346 57.594, 101.500 59.164 M 166.500 472.391 C 159.109 474.716, 154.417 478.726, 139.016 495.884 C 126.672 509.637, 123.282 512.869, 121.595 512.490 C 120.443 512.232, 100.867 508.866, 78.093 505.010 C 30.784 497, 33.853 496.918, 27.348 506.359 C 23.524 511.909, 23.126 515.271, 26 517.732 C 27.099 518.673, 40.073 524.436, 54.830 530.538 C 71.979 537.630, 83.165 542.842, 85.830 544.984 C 88.124 546.827, 90 548.601, 90 548.926 C 90 549.251, 85.283 554.913, 79.518 561.509 C 73.753 568.104, 67.791 575.857, 66.268 578.738 C 63.987 583.054, 63.148 583.862, 61.500 583.333 C 60.400 582.979, 55.867 581.687, 51.428 580.461 C 42.091 577.882, 39.315 578.460, 34.700 583.944 C 29.665 589.928, 28.993 589.075, 57.555 612.978 C 67.425 621.239, 76.542 628.279, 77.815 628.623 C 80.652 629.391, 85.521 625.196, 87.693 620.114 C 89.096 616.833, 88.997 616.430, 84.503 607.136 C 81.953 601.861, 80.305 597.398, 80.841 597.220 C 84.622 595.959, 92.052 589.394, 101.354 579.093 C 112.208 567.074, 112.208 567.074, 116.676 570.787 C 119.379 573.034, 124.142 579.239, 128.736 586.500 C 154.529 627.265, 154.093 626.696, 158.673 625.546 C 162.229 624.653, 172 614.940, 172 612.297 C 172 611.194, 165.919 592.391, 158.486 570.514 C 147.185 537.250, 145.179 530.476, 146.236 529.136 C 146.931 528.254, 153.673 520.676, 161.218 512.296 C 175.101 496.876, 179.438 490.366, 180.579 483.233 C 181.406 478.061, 179.113 473.583, 174.881 472.108 C 171.149 470.808, 171.584 470.793, 166.500 472.391 M 97.215 479.940 C 93.758 480.928, 88.076 483.185, 84.589 484.955 C 76.855 488.881, 67.778 496.580, 70 497.330 C 70.825 497.608, 78.131 498.968, 86.236 500.352 C 97.550 502.284, 101.731 502.635, 104.236 501.865 C 106.031 501.313, 110.975 500.833, 115.222 500.799 C 122.943 500.737, 122.943 500.737, 130.584 491.966 C 134.787 487.143, 138.287 482.817, 138.363 482.353 C 138.438 481.890, 135.800 480.757, 132.500 479.835 C 124.094 477.488, 105.597 477.543, 97.215 479.940 M 314.193 486.072 C 294.197 488.669, 276.153 497.784, 260.177 513.360 C 249.125 524.135, 247.532 528.685, 252.923 534.077 C 255.099 536.252, 256.791 537, 259.540 537 C 262.808 537, 264.085 536.140, 270.638 529.523 C 282.735 517.308, 293.554 510.954, 309.018 506.983 C 325.753 502.686, 344.928 504.811, 360.500 512.687 C 369.636 517.308, 374.963 521.307, 383.473 529.933 C 389.577 536.119, 390.900 537, 394.088 537 C 400.950 537, 405.397 530.804, 403.021 524.556 C 402.437 523.020, 398.931 518.617, 395.230 514.770 C 373.986 492.693, 344.266 482.168, 314.193 486.072 M 521.407 487.031 C 506.097 490.066, 494.947 502.277, 493.357 517.750 C 492.715 524, 492.715 524, 488.825 524 C 480.877 524, 473.143 529.350, 469.367 537.459 C 466.646 543.303, 466.422 547.111, 468.461 552.890 C 470.687 559.199, 474.547 563.559, 479.972 565.893 C 484.503 567.842, 486.679 568, 508.935 568 C 522.171 568, 532.989 568.337, 532.977 568.750 C 532.964 569.163, 528.916 574, 523.982 579.500 C 519.048 585, 515.009 590.063, 515.006 590.750 C 515.001 591.691, 518.464 592, 529 592 C 536.700 592, 543 592.265, 543 592.588 C 543 592.912, 538.500 597.955, 533 603.795 C 517.945 619.780, 519.055 619.890, 543.500 604.835 C 552.850 599.077, 565.561 591.245, 571.746 587.433 C 577.932 583.620, 582.994 579.952, 582.996 579.282 C 582.999 578.411, 579.742 577.983, 571.596 577.782 C 560.192 577.500, 560.192 577.500, 565.669 572.750 C 571.147 568, 571.147 568, 591.324 567.978 C 614.296 567.953, 616.753 567.360, 623.115 560.303 C 627.965 554.923, 629.681 548.008, 627.953 540.806 C 626.309 533.950, 619.364 526.750, 612.451 524.734 C 607.932 523.416, 607.618 523.095, 606.481 518.614 C 605.106 513.199, 600.529 507.892, 594.500 504.721 C 591.030 502.897, 588.316 502.561, 574.018 502.186 C 557.536 501.754, 557.536 501.754, 553.873 497.593 C 549.237 492.326, 542.166 488.478, 534.566 487.087 C 527.963 485.877, 527.239 485.874, 521.407 487.031 M 164.113 520.386 C 155.770 528.773, 155.770 528.773, 156.939 532.315 C 157.582 534.264, 158.105 539.152, 158.102 543.179 C 158.097 549.390, 158.885 552.812, 163.298 565.750 C 166.159 574.137, 168.950 580.872, 169.500 580.716 C 171.121 580.257, 177.842 566.002, 179.485 559.540 C 181.408 551.973, 181.433 535.216, 179.531 528.070 C 177.756 521.399, 174.001 512, 173.112 512 C 172.751 512, 168.702 515.774, 164.113 520.386 M 312.252 520.427 C 299.665 522.907, 283.978 533.278, 277.094 543.672 C 273.153 549.622, 273.049 553.721, 276.750 557.242 C 281.044 561.326, 284.355 561.693, 289.027 558.601 C 291.212 557.155, 293 555.563, 293 555.063 C 293 553.062, 298.413 547.910, 303.685 544.894 C 309.776 541.409, 321.282 538, 326.952 538 C 331.935 538, 344.693 541.656, 349.500 544.461 C 354.413 547.328, 359.116 551.604, 361.343 555.229 C 363.619 558.936, 368.407 561.289, 372.046 560.490 C 375.636 559.701, 380 554.691, 380 551.358 C 380 544.124, 366.325 530.328, 353.090 524.208 C 342.486 519.305, 325.790 517.760, 312.252 520.427 M 49.244 545.750 C 49.809 557.259, 53.506 571.055, 57.174 575.339 C 59.023 577.500, 59.023 577.500, 63.078 573 C 74.728 560.072, 74.290 560.995, 72.906 552.306 C 72.222 548.013, 71.176 544.001, 70.581 543.392 C 69.201 541.978, 52.303 535, 50.258 535 C 48.932 535, 48.791 536.504, 49.244 545.750 M 318.324 551.439 C 305.075 555.582, 296.926 566.401, 296.883 579.905 C 296.853 589.241, 299.641 595.557, 306.596 601.914 C 315.148 609.730, 325.264 611.893, 336.987 608.411 C 341.065 607.200, 343.683 605.475, 347.993 601.161 C 354.595 594.553, 357 588.763, 357 579.482 C 357 560.247, 336.859 545.644, 318.324 551.439 M 95 594.463 C 88.102 601.441, 86.783 603.245, 88 604.035 C 91.380 606.229, 103.001 609.148, 110.507 609.687 C 119.517 610.335, 132.871 608.501, 133.634 606.511 C 133.905 605.805, 131.578 601.126, 128.463 596.114 C 122.798 587, 122.798 587, 116.649 586.989 C 113.267 586.983, 108.925 586.728, 107 586.422 C 103.676 585.893, 103.072 586.299, 95 594.463 M 327.249 680.433 C 323.387 693.153, 317.730 698.632, 303.750 703.192 C 300.038 704.403, 297 705.648, 297 705.959 C 297 706.270, 299.925 707.363, 303.500 708.386 C 316.559 712.127, 323.376 718.805, 327.288 731.693 C 328.504 735.701, 329.755 738.985, 330.067 738.991 C 330.379 738.996, 331.446 736.413, 332.438 733.250 C 337.198 718.070, 342.879 712.265, 356.750 708.409 C 360.188 707.454, 363 706.367, 363 705.994 C 363 705.622, 360.311 704.502, 357.023 703.507 C 343.154 699.308, 337.203 693.482, 332.792 679.787 C 331.590 676.054, 330.357 673.004, 330.053 673.009 C 329.749 673.015, 328.487 676.355, 327.249 680.433 M 499.742 687.750 C 498.931 689.813, 497.713 693.975, 497.036 697 C 496.359 700.025, 495.346 704.525, 494.784 707 C 494.222 709.475, 492.619 715.100, 491.220 719.500 C 489.012 726.446, 488.655 729.476, 488.514 742.500 C 488.337 758.936, 489.118 755.719, 478.640 783.162 C 476.957 787.572, 476.272 790.952, 476.615 793.162 C 477.026 795.808, 476.446 797.517, 473.817 801.403 C 467.441 810.827, 464.008 816.509, 464.004 817.643 C 463.997 819.482, 466.963 820.097, 469.322 818.746 C 470.743 817.933, 475.673 817.516, 483.500 817.545 C 494.548 817.586, 496.113 817.836, 503.230 820.699 C 507.481 822.410, 512.857 825.434, 515.177 827.419 C 517.496 829.405, 521.043 831.473, 523.058 832.016 C 525.073 832.558, 534.322 832.919, 543.611 832.817 C 560.500 832.632, 560.500 832.632, 567.388 835.816 C 571.338 837.642, 575.911 839, 578.107 839 C 582.697 839, 596.684 843.404, 599.133 845.620 C 603.161 849.266, 606.512 841.671, 607.894 825.764 C 608.454 819.311, 609.320 813.238, 609.819 812.266 C 610.317 811.295, 612.109 806.450, 613.801 801.500 C 616.876 792.500, 616.876 792.500, 615.082 783.387 C 614.095 778.375, 612.978 773.773, 612.600 773.162 C 612.222 772.551, 613.369 768.551, 615.148 764.275 C 618.281 756.743, 618.386 756.031, 618.482 741.500 C 618.582 726.500, 618.582 726.500, 622.714 717 C 626.192 709.002, 626.632 707.280, 625.497 706.110 C 623.386 703.934, 614.995 703.617, 606.273 705.385 C 596.528 707.359, 593.038 707.407, 588.784 705.623 C 581.597 702.609, 563.662 695.763, 560.811 694.946 C 558.880 694.392, 553.749 694.617, 546.642 695.566 C 535.367 697.072, 531.191 696.889, 522.940 694.526 C 516.567 692.702, 506.369 687.405, 505.657 685.549 C 504.524 682.595, 501.298 683.795, 499.742 687.750 M 92 691.512 C 66.554 697.736, 45.940 716.500, 37.810 740.840 C 34.732 750.052, 34.582 751.218, 34.568 766 C 34.554 780.987, 34.664 781.822, 37.895 791.227 C 44.547 810.586, 57.304 825.142, 75.421 834.043 C 88.918 840.674, 94.697 842.003, 109.960 841.985 C 125.262 841.967, 132.476 840.409, 144.500 834.524 C 159.970 826.953, 170.568 816.372, 178.502 800.578 C 183.907 789.816, 186 780.166, 186 766 C 186 752.052, 183.886 742.202, 178.595 731.500 C 168.683 711.449, 151.470 697.684, 129.090 691.911 C 120.223 689.624, 100.583 689.413, 92 691.512 M 106 711.294 C 101.705 713.466, 101.019 716.415, 101.692 729.804 C 102.305 742, 102.305 742, 110.653 742 C 119 742, 119 742, 119.220 732.750 C 119.619 715.964, 119.615 715.938, 116.135 712.830 C 112.693 709.754, 109.885 709.329, 106 711.294 M 68.244 720.588 C 62.024 725.491, 62.110 725.833, 72.111 735.949 C 81.176 745.118, 81.176 745.118, 85.924 740.809 C 90.673 736.500, 90.673 736.500, 81.606 727.250 C 76.619 722.163, 72.306 718.005, 72.020 718.011 C 71.734 718.017, 70.035 719.177, 68.244 720.588 M 138.598 727.209 C 129.696 736.169, 129.696 736.169, 134.344 740.818 C 138.992 745.466, 138.992 745.466, 147.996 736.504 C 152.948 731.575, 157 727.061, 157 726.474 C 157 725.088, 149.709 717.962, 148.458 718.125 C 147.931 718.193, 143.494 722.282, 138.598 727.209 M 280 729.626 C 269.800 731.597, 262.950 735.123, 255.229 742.377 C 233.741 762.567, 237.143 799.049, 261.999 815 C 275.500 823.663, 295.417 824.425, 310.295 816.846 C 314.993 814.454, 321.433 808.730, 325.097 803.693 C 327.865 799.886, 327.865 799.886, 331.270 805.193 C 339.970 818.756, 353.660 826, 370.592 826 C 384.846 826, 395.814 821.361, 404.795 811.534 C 421.313 793.460, 421.151 765.039, 404.430 747.589 C 395.011 737.758, 385.107 733.706, 370.500 733.706 C 359.271 733.706, 352.219 735.664, 344.767 740.850 C 340.149 744.065, 332.852 751.370, 331.282 754.351 C 330.421 755.987, 330.009 755.691, 327.726 751.795 C 322.357 742.633, 313.476 735.440, 303.106 731.855 C 297.540 729.930, 284.792 728.701, 280 729.626 M 531.750 741.748 C 529.138 743.103, 527 744.864, 527 745.661 C 527 746.458, 529.250 750.523, 532 754.694 C 534.750 758.865, 537 762.859, 537 763.570 C 537 764.281, 533.513 767.356, 529.250 770.404 C 515.157 780.481, 516.085 778.915, 520.380 785.385 C 522.430 788.473, 524.452 791, 524.874 791 C 525.296 791, 529.884 787.859, 535.070 784.021 C 540.257 780.183, 544.997 777.033, 545.604 777.021 C 546.211 777.009, 548.320 779.587, 550.291 782.750 C 555.193 790.618, 558.358 794.940, 559.241 794.972 C 560.690 795.026, 569.498 787.672, 569.387 786.501 C 569.325 785.847, 566.710 781.418, 563.576 776.659 C 560.442 771.900, 558.151 767.564, 558.485 767.024 C 558.819 766.483, 562.430 763.711, 566.508 760.864 C 570.807 757.862, 573.647 755.227, 573.264 754.593 C 571.560 751.771, 565.763 744, 565.362 744 C 565.114 744, 561.939 746.250, 558.307 749 C 554.674 751.750, 550.981 753.992, 550.101 753.981 C 549.220 753.971, 547.150 751.690, 545.500 748.912 C 541.236 741.733, 539.030 738.979, 537.677 739.142 C 537.030 739.220, 534.362 740.393, 531.750 741.748 M 280.909 751.554 C 275.310 753.278, 267.637 759.832, 264.873 765.249 C 262.704 769.500, 261.103 780, 262.623 780 C 263.120 780, 269.975 773.539, 277.857 765.643 C 289.026 754.455, 291.819 751.144, 290.512 750.643 C 288.162 749.741, 286.184 749.929, 280.909 751.554 M 101.343 756.290 C 95.733 761.591, 94.541 767.351, 97.936 772.759 C 105.732 785.179, 124.013 780.290, 123.996 765.790 C 123.988 758.797, 116.947 752.011, 109.692 752.004 C 106.576 752.001, 105.058 752.780, 101.343 756.290 M 363.909 755.554 C 358.310 757.278, 350.637 763.832, 347.873 769.249 C 345.704 773.500, 344.103 784, 345.623 784 C 346.120 784, 352.975 777.539, 360.857 769.643 C 372.026 758.455, 374.819 755.144, 373.512 754.643 C 371.162 753.741, 369.184 753.929, 363.909 755.554 M 56.500 760.195 C 55.400 760.819, 54.169 761.818, 53.765 762.415 C 52.306 764.571, 53.036 768.955, 55.189 770.961 C 57.176 772.813, 58.670 773, 71.439 773 C 85.500 773, 85.500 773, 85.500 766 C 85.500 759, 85.500 759, 72 759.030 C 63.835 759.049, 57.710 759.509, 56.500 760.195 M 134.500 765.932 C 134.500 773, 134.500 773, 148.639 773 C 164.797 773, 167.333 772.065, 167.333 766.108 C 167.333 760.185, 165.637 759.537, 149.217 759.182 C 134.500 758.864, 134.500 758.864, 134.500 765.932 M 291.938 780.965 C 277.487 794.928, 274.815 797.940, 276.341 798.549 C 277.789 799.127, 280.458 797.049, 288.841 788.813 C 294.704 783.054, 302.087 775.939, 305.250 773.002 C 310.716 767.926, 312.004 765.739, 310.188 764.616 C 309.742 764.341, 301.529 771.697, 291.938 780.965 M 374.938 784.965 C 360.487 798.928, 357.815 801.940, 359.341 802.549 C 360.789 803.127, 363.458 801.049, 371.841 792.813 C 377.704 787.054, 385.087 779.939, 388.250 777.002 C 393.716 771.926, 395.004 769.739, 393.188 768.616 C 392.742 768.341, 384.529 775.697, 374.938 784.965 M 298.513 786.975 C 284.527 801, 284.527 801, 288.641 801 C 290.904 801, 294.416 800.306, 296.445 799.458 C 305.243 795.782, 313.493 784.159, 312.806 776.408 C 312.500 772.949, 312.500 772.949, 298.513 786.975 M 381.513 790.975 C 367.527 805, 367.527 805, 371.641 805 C 373.904 805, 377.416 804.306, 379.445 803.458 C 388.243 799.782, 396.493 788.159, 395.806 780.408 C 395.500 776.949, 395.500 776.949, 381.513 790.975 M 73.904 798.624 C 64.500 808.093, 64.500 808.093, 68.711 812.047 C 71.027 814.221, 73.286 816, 73.731 816 C 74.176 816, 78.688 811.834, 83.759 806.742 C 92.978 797.484, 92.978 797.484, 88.143 793.319 C 83.307 789.154, 83.307 789.154, 73.904 798.624 M 135.376 791.137 C 134.374 792.245, 132.304 793.889, 130.777 794.791 C 129.250 795.693, 128 796.800, 128 797.250 C 128 798.548, 145.158 816, 146.434 816 C 147.066 816, 149.423 814.087, 151.670 811.750 C 155.757 807.500, 155.757 807.500, 146.477 798.312 C 137.296 789.222, 137.178 789.146, 135.376 791.137 M 102.014 804 C 102.021 811.425, 102.289 818.476, 102.609 819.668 C 103.380 822.544, 108.070 824.397, 112.481 823.570 C 118.008 822.533, 119 819.521, 119 803.785 C 119 790.470, 119 790.470, 110.501 790.485 C 102.001 790.500, 102.001 790.500, 102.014 804 M 102 919.857 C 102 930.713, 102 930.713, 93.102 931.385 C 85.365 931.969, 82.033 932.604, 71.500 935.500 C 69.874 935.948, 68.585 934.637, 64.611 928.499 C 61.923 924.345, 59.326 920.702, 58.842 920.402 C 57.193 919.383, 48 927.010, 48 929.397 C 48 930.622, 50.056 934.391, 52.569 937.773 C 57.138 943.922, 57.138 943.922, 44.054 956.600 C 36.581 963.839, 30.693 970.374, 30.327 971.835 C 29.512 975.081, 33.515 978.786, 48.395 988.558 C 54.208 992.376, 58.973 995.976, 58.982 996.557 C 58.992 997.138, 54.213 1005.688, 48.363 1015.557 C 42.512 1025.426, 35.087 1037.965, 31.863 1043.421 C 28.638 1048.878, 26 1054.158, 26 1055.154 C 26 1056.321, 27.759 1057.857, 30.941 1059.470 C 35.882 1061.974, 35.882 1061.974, 40.849 1053.737 C 43.581 1049.207, 48.594 1040.325, 51.988 1034 C 55.383 1027.675, 58.482 1022.164, 58.876 1021.754 C 59.269 1021.344, 63.532 1022.615, 68.349 1024.579 C 80.114 1029.376, 97.610 1033, 109 1033 C 123.216 1033, 137.475 1029.581, 157.638 1021.337 C 158.288 1021.071, 162.100 1027.007, 166.531 1035.186 C 170.796 1043.059, 176.055 1052.303, 178.218 1055.728 C 182.152 1061.957, 182.152 1061.957, 187.076 1059.462 C 190.007 1057.976, 192 1056.292, 192 1055.300 C 192 1054.383, 189.593 1049.553, 186.652 1044.567 C 183.711 1039.580, 176.790 1027.850, 171.273 1018.500 C 160.283 999.876, 159 997.552, 159 996.264 C 159 995.786, 163.103 992.758, 168.117 989.534 C 173.132 986.310, 179.432 981.936, 182.117 979.813 C 189.740 973.788, 189.400 972.861, 174.003 957.673 C 166.852 950.618, 161 944.600, 161 944.300 C 161 944, 163.025 940.916, 165.500 937.448 C 167.975 933.979, 170 930.252, 170 929.165 C 170 927.388, 161.328 919.997, 159.248 920.002 C 158.836 920.003, 156.130 923.782, 153.234 928.399 C 147.968 936.796, 147.968 936.796, 142.793 934.829 C 139.947 933.748, 132.754 932.346, 126.809 931.714 C 116 930.565, 116 930.565, 116 919.783 C 116 909, 116 909, 109 909 C 102 909, 102 909, 102 919.857 M 312.326 910.016 C 310.031 910.485, 306.881 911.503, 305.326 912.278 C 303.693 913.092, 300.782 913.504, 298.429 913.255 C 289.828 912.345, 283 918.631, 283 927.460 C 283 930.162, 282.586 931.001, 281.250 931.006 C 280.288 931.010, 278.351 931.612, 276.947 932.345 C 274.475 933.634, 274.407 933.588, 274.802 930.894 C 275.137 928.612, 275.776 928.056, 278.355 927.806 C 280.962 927.552, 281.500 927.072, 281.500 925 C 281.500 922.910, 280.966 922.449, 278.250 922.187 C 275.429 921.915, 275 922.179, 275.002 924.187 C 275.004 926.416, 274.750 926.488, 268.002 926.168 C 261 925.836, 261 925.836, 261 928.789 C 261 931.741, 261 931.741, 252.945 931.846 C 248.515 931.903, 244.465 932.213, 243.945 932.534 C 242.693 933.308, 242.739 939.184, 244.024 942.562 C 244.969 945.049, 245.386 945.217, 249.482 944.755 C 253.916 944.255, 253.916 944.255, 254.589 948.742 C 255.261 953.229, 255.261 953.229, 260.048 952.769 C 264.835 952.309, 264.835 952.309, 265.503 955.870 C 266.962 963.646, 271.183 967.939, 278.366 968.954 C 282.233 969.500, 282.233 969.500, 284.184 977 C 285.640 982.598, 285.951 985.895, 285.411 990 C 285.013 993.025, 284.645 997.790, 284.594 1000.590 C 284.502 1005.572, 284.440 1005.672, 281.666 1005.349 C 276.214 1004.715, 275 1006.296, 275 1014.035 C 275 1020.762, 274.916 1021, 272.547 1021 C 270.234 1021, 267.403 1021.904, 262.276 1024.279 C 258.986 1025.804, 257.699 1030.706, 259.037 1036.618 C 259.695 1039.524, 259.873 1044.600, 259.475 1049.160 C 258.658 1058.537, 259.301 1061, 262.567 1061 C 264.685 1061, 265 1060.543, 265 1057.468 C 265 1055.525, 264.358 1052.399, 263.573 1050.521 C 262.554 1048.082, 262.310 1044.946, 262.717 1039.553 C 263.279 1032.133, 263.337 1032, 266.019 1032 C 272.048 1032, 281.891 1037.250, 294 1046.926 C 305.687 1056.264, 311.847 1059.513, 319.888 1060.580 C 325.099 1061.271, 334.828 1059.630, 339.381 1057.293 C 341.812 1056.044, 342.972 1056.012, 346.812 1057.087 C 356.967 1059.931, 368.884 1057.110, 375.501 1050.296 C 378.835 1046.864, 379.091 1046.781, 384.383 1047.442 C 391.059 1048.276, 391.740 1047.440, 391.015 1039.293 C 390.537 1033.912, 390.310 1033.478, 387.830 1033.191 C 385.196 1032.887, 385.182 1032.845, 386.782 1030.057 C 387.788 1028.304, 390.605 1026.220, 394.202 1024.569 C 400.381 1021.733, 401.613 1020, 397.450 1020 C 394.353 1020, 390.238 1017.958, 383.143 1012.899 C 380.196 1010.798, 375.359 1008.374, 372.393 1007.512 C 369.427 1006.650, 367 1005.513, 367 1004.985 C 367 1003.586, 361.050 1001.328, 355.403 1000.583 C 349.335 999.783, 344.513 1001.134, 340.825 1004.667 C 338 1007.374, 338 1007.374, 338.007 1000.437 C 338.011 996.622, 338.295 990.528, 338.638 986.896 C 339.262 980.292, 339.262 980.292, 344.142 982.146 C 347.055 983.253, 351.611 984, 355.449 984 C 361.877 984, 361.877 984, 362.565 988.750 C 363.356 994.218, 364.477 996, 367.122 996 C 369.439 996, 369.583 993.278, 367.429 990.202 C 366.135 988.354, 366.060 987.347, 367.007 984.480 C 367.638 982.566, 368.761 981, 369.501 981 C 370.241 981, 372.184 979.875, 373.818 978.500 C 375.452 977.125, 377.961 976, 379.394 976 C 381.768 976, 382 975.643, 382 972 C 382 968.424, 382.259 968, 384.445 968 C 386.653 968, 386.920 968.461, 387.195 972.750 C 387.500 977.500, 387.500 977.500, 391.500 977.500 C 395.500 977.500, 395.500 977.500, 395.180 969.500 C 394.803 960.061, 394.328 958, 392.528 958 C 391.536 958, 391.334 956.925, 391.747 953.848 C 392.387 949.074, 390.589 947, 385.809 947 C 383.472 947, 383 946.576, 383 944.475 C 383 941.367, 379.925 940, 372.935 940 C 368 940, 368 940, 368 936.234 C 368 927.072, 361.667 921.999, 349.231 921.201 C 342.258 920.754, 341.477 920.474, 338.853 917.485 C 333.654 911.564, 321.493 908.140, 312.326 910.016 M 579 911.339 C 579 912.076, 580.101 913.181, 581.446 913.794 C 584.983 915.405, 592 921.982, 592 923.686 C 592 924.621, 592.802 925.025, 594.250 924.820 C 598.670 924.192, 595.546 916.699, 589.010 912.250 C 585.335 909.749, 579 909.173, 579 911.339 M 570.250 915.662 C 568.576 916.338, 568.648 919, 570.340 919 C 573.158 919, 584.009 925.246, 586.888 928.525 C 588.545 930.413, 590.199 933.542, 590.562 935.479 C 591.493 940.441, 594 940.153, 594 935.083 C 594 927.363, 588.303 918.564, 581.685 916.064 C 578.809 914.977, 572.497 914.755, 570.250 915.662 M 564 923.644 C 563.175 923.911, 559.655 925.290, 556.178 926.708 C 550.362 929.080, 549.437 929.192, 544.619 928.114 C 540.310 927.150, 538.759 927.203, 535.862 928.413 C 533.925 929.222, 531.783 930.557, 531.101 931.378 C 529.428 933.394, 524.089 934.489, 522.701 933.101 C 521.051 931.451, 513.338 931.775, 509.700 933.648 C 499.529 938.884, 491.933 949.307, 491.722 958.316 C 491.617 962.790, 492.115 964.575, 494.449 968.102 C 497.156 972.193, 497.241 972.650, 496.094 976.958 C 495.429 979.456, 494.236 982.807, 493.442 984.404 C 492.649 986.001, 492 987.858, 492 988.531 C 492 989.204, 491.278 990.354, 490.396 991.086 C 486.176 994.589, 486.754 999.207, 492.451 1007.500 C 494.888 1011.048, 495.135 1012.129, 494.634 1017.063 C 494.324 1020.122, 493.164 1024.622, 492.057 1027.063 C 489.506 1032.685, 489.513 1034.305, 492.106 1039.498 C 494.647 1044.585, 503.780 1050.975, 512 1053.416 C 516.641 1054.794, 518.281 1054.859, 522.500 1053.831 C 525.250 1053.161, 528.694 1051.800, 530.154 1050.806 C 531.614 1049.813, 533.096 1049, 533.446 1049 C 533.797 1049, 534.977 1048.167, 536.069 1047.150 C 538.005 1045.347, 538.172 1045.359, 542.674 1047.638 C 546.265 1049.456, 548.207 1049.836, 551.397 1049.346 C 558.649 1048.232, 565.096 1045.084, 569.584 1040.467 C 573.815 1036.114, 574.085 1036, 580.213 1035.995 C 584.827 1035.991, 587.298 1035.457, 589.500 1033.989 C 591.150 1032.889, 593.952 1031.053, 595.728 1029.909 C 601.567 1026.146, 608.042 1015.410, 607.976 1009.601 C 607.963 1008.445, 606.799 1004.800, 605.389 1001.500 C 600.283 989.549, 598.303 974.613, 601.210 969.975 C 605.517 963.106, 603.266 955.580, 595.030 949.304 C 589.942 945.427, 588.582 943.281, 587.547 937.500 C 586.595 932.180, 583.019 927.672, 577.711 925.102 C 573.680 923.151, 567.539 922.498, 564 923.644 M 489.205 928.750 C 486.766 931.362, 483.538 935.300, 482.032 937.500 C 475.592 946.909, 472.245 962.706, 475.399 968.805 C 477.192 972.271, 478.133 972.547, 482.716 970.949 C 485.664 969.921, 485.753 969.691, 486.807 960.415 C 488.114 948.909, 491.114 941.833, 497.316 935.632 C 501.791 931.157, 501.791 931.157, 499.359 927.578 C 498.022 925.610, 496.188 924, 495.284 924 C 494.380 924, 491.644 926.138, 489.205 928.750 M 474.790 927.476 C 470.819 931.184, 466.906 938.371, 464.881 945.675 C 462.012 956.018, 463.697 969.585, 467.753 968.813 C 469.212 968.535, 469.588 966.998, 470.035 959.490 C 470.649 949.165, 472.685 943.026, 478.253 934.709 C 480.386 931.523, 481.984 928.148, 481.805 927.209 C 481.299 924.551, 477.779 924.685, 474.790 927.476 M 399 929.941 C 399 932.461, 400.517 933.338, 403.557 932.575 C 405.119 932.183, 406 931.248, 406 929.981 C 406 928.384, 405.322 928, 402.500 928 C 399.702 928, 399 928.389, 399 929.941 M 383.732 933.411 C 382.875 934.267, 382.499 936.041, 382.775 937.921 C 383.298 941.483, 385.258 942.303, 392.080 941.816 C 396.500 941.500, 396.500 941.500, 396.805 936.750 C 397.110 932, 397.110 932, 391.126 932 C 387.308 932, 384.632 932.511, 383.732 933.411 M 263 936.750 C 263 938.438, 263.581 939, 265.326 939 C 266.605 939, 268.603 937.987, 269.765 936.750 C 271.879 934.500, 271.879 934.500, 267.439 934.500 C 263.502 934.500, 263 934.755, 263 936.750 M 558.070 936.106 C 554.525 937.678, 553.048 937.864, 550.671 937.035 C 545.398 935.197, 541.143 935.805, 536.386 939.079 C 532.248 941.925, 531.154 942.185, 521.870 942.520 C 510.617 942.926, 507.557 944.187, 506.535 948.841 C 506.184 950.440, 504.795 952.784, 503.448 954.049 C 499.950 957.335, 500.316 960.377, 504.606 963.649 C 509.078 967.060, 509.959 969.324, 508.717 974.217 C 507.968 977.169, 508.118 979.020, 509.373 982.306 C 511.596 988.128, 511.496 988.666, 507.500 992.435 C 503.603 996.111, 503.136 998.875, 505.630 1003.500 C 507.890 1007.690, 507.702 1013.748, 505.158 1018.710 C 501.352 1026.134, 502.882 1035.117, 508.992 1041.227 C 512.137 1044.372, 513.452 1045, 516.891 1045 C 520.079 1045, 521.708 1044.341, 524.047 1042.106 C 529.208 1037.174, 532.072 1036.496, 537.540 1038.915 C 545.968 1042.643, 551.892 1041.483, 560.654 1034.387 C 565.901 1030.138, 568.914 1029, 574.917 1029 C 578.444 1029, 580.598 1028.344, 583.102 1026.507 C 584.971 1025.136, 587.979 1023.057, 589.787 1021.887 C 595.663 1018.083, 597.562 1011.230, 594.564 1004.651 C 592.133 999.318, 591.240 994.571, 591.699 989.428 C 592.087 985.080, 591.719 983.857, 588.569 979.034 C 584.547 972.873, 584.184 970.331, 586.834 966.885 C 592.749 959.195, 592.661 954.502, 586.534 950.887 C 584.593 949.742, 581.022 945.794, 578.511 942.016 C 576.021 938.272, 573.276 934.936, 572.411 934.604 C 569.369 933.437, 562.455 934.161, 558.070 936.106 M 303.345 937.451 C 300.021 938.897, 298.534 941.623, 299.581 944.351 C 300.608 947.026, 309.652 949.139, 323.845 950.021 C 338.719 950.944, 346.015 950.201, 349.052 947.453 C 351.668 945.086, 351.189 941.846, 348 940.331 C 340.040 936.550, 309.886 934.605, 303.345 937.451 M 557.500 938.587 C 555.209 939.790, 553.004 940.004, 548.170 939.493 C 540.613 938.694, 537.042 939.854, 531.799 944.811 C 528.099 948.309, 528.099 948.309, 521.013 947.139 C 513.553 945.907, 510 946.669, 510 949.500 C 510 950.287, 508.625 952.496, 506.945 954.409 C 503.972 957.796, 503.933 957.970, 505.471 960.944 C 506.340 962.625, 507.399 964, 507.825 964 C 508.250 964, 509.178 965.604, 509.887 967.565 C 510.597 969.526, 511.791 971.366, 512.542 971.655 C 513.645 972.078, 513.542 972.862, 512.005 975.729 C 510.131 979.226, 510.132 979.338, 512.051 983.100 C 513.123 985.201, 514 987.121, 514 987.366 C 514 987.610, 512.425 989.696, 510.500 992 C 508.575 994.304, 507 996.734, 507 997.400 C 507 998.066, 508.127 1000.139, 509.504 1002.005 C 512.325 1005.829, 512.257 1006.377, 507.774 1016 C 504.402 1023.235, 503.880 1029.105, 506.364 1031.849 C 507.264 1032.844, 508 1034.362, 508 1035.223 C 508 1036.084, 509.360 1038.244, 511.022 1040.023 C 513.726 1042.919, 514.473 1043.200, 518.142 1042.708 C 520.861 1042.343, 523.306 1041.127, 525.398 1039.098 C 529.445 1035.176, 534.085 1034.171, 537.577 1036.459 C 539.008 1037.396, 542.592 1038.412, 545.541 1038.716 C 550.822 1039.261, 550.965 1039.205, 554.825 1035.065 C 559.721 1029.816, 569.111 1025.011, 574.500 1024.998 C 581.068 1024.983, 585.899 1023.101, 590.065 1018.935 C 594.758 1014.242, 595.225 1010.187, 591.750 1004.307 C 589.865 1001.118, 589.500 999.039, 589.500 991.500 C 589.500 982.864, 589.363 982.310, 586.112 977.794 C 583.251 973.820, 582.817 972.517, 583.319 969.420 C 583.647 967.403, 584.628 964.964, 585.500 964 C 587.689 961.581, 588.575 955.398, 587.004 953.504 C 586.313 952.673, 584.373 951.636, 582.692 951.200 C 580.531 950.640, 579.354 949.543, 578.673 947.454 C 576.874 941.933, 569.249 937.010, 562.500 937.012 C 561.400 937.012, 559.150 937.721, 557.500 938.587 M 559 941.651 C 555.264 942.432, 550.161 942.764, 547 942.432 C 541.953 941.902, 541.095 942.128, 536.575 945.177 C 533.866 947.005, 530.716 949.067, 529.575 949.759 C 527.592 950.963, 523.592 950.862, 516.328 949.424 C 513.543 948.872, 512.973 949.152, 511.644 951.721 C 510.812 953.329, 509.427 955.230, 508.566 955.945 C 506.397 957.745, 506.567 958.422, 510 961.662 C 511.650 963.219, 513 965.227, 513 966.124 C 513 967.021, 513.675 968.315, 514.500 969 C 516.483 970.646, 516.404 973.896, 514.325 976.193 C 512.759 977.924, 512.759 978.271, 514.325 981.556 C 516.795 986.734, 516.500 990.627, 513.488 992.600 C 509.932 994.930, 509.168 998.729, 511.875 1000.625 C 514.871 1002.723, 514.613 1007.405, 511 1016.500 C 509.350 1020.654, 508 1024.798, 508 1025.710 C 508 1027.745, 511.759 1035.860, 513.809 1038.250 C 515.757 1040.521, 520.524 1040.498, 522.193 1038.209 C 526.592 1032.180, 534.754 1030.333, 540.774 1034.004 C 545.668 1036.988, 549.045 1036.580, 552.968 1032.533 C 554.816 1030.626, 558.167 1028.123, 560.414 1026.971 C 562.661 1025.820, 565.780 1024.185, 567.344 1023.339 C 569.839 1021.989, 573.026 1021.445, 580.500 1021.092 C 582.758 1020.985, 588 1016.845, 588 1015.169 C 588 1014.565, 588.859 1013.610, 589.910 1013.048 C 592.011 1011.924, 591.761 1008.712, 589.354 1005.916 C 586.973 1003.150, 584.794 994.254, 585.963 992.070 C 588.010 988.243, 587.196 983.678, 583.911 980.578 C 579.914 976.805, 578.646 973.454, 579.879 969.917 C 580.406 968.406, 580.625 966.959, 580.367 966.700 C 580.109 966.442, 581.271 964.065, 582.950 961.417 C 584.699 958.660, 585.629 956.229, 585.127 955.727 C 584.645 955.245, 582.507 954.254, 580.375 953.525 C 577.399 952.507, 576.427 951.605, 576.187 949.634 C 575.890 947.203, 570.500 942.026, 567 940.812 C 566.175 940.526, 562.575 940.903, 559 941.651 M 83.500 946.845 C 76.167 949.012, 73.903 950.193, 67.500 955.196 C 61.793 959.655, 46 975.015, 46 976.106 C 46 977.537, 55.998 984.129, 63.176 987.429 C 67.204 989.282, 74.403 992.168, 79.174 993.843 C 87.847 996.890, 87.847 996.890, 85.174 991.737 C 81.546 984.745, 81.357 972.720, 84.773 966.278 C 90.525 955.432, 97.909 950.706, 109.107 950.706 C 119.996 950.706, 127.558 955.588, 133.227 966.278 C 136.452 972.360, 136.420 984.698, 133.163 990.847 C 131.897 993.238, 131.068 995.401, 131.321 995.654 C 131.922 996.255, 150.086 989.466, 156.422 986.273 C 159.129 984.908, 163.728 982.209, 166.642 980.274 C 170.996 977.383, 171.773 976.445, 171.005 975.009 C 170.490 974.048, 165.830 969.250, 160.649 964.346 C 142.025 946.720, 139.348 945.705, 110.500 945.339 C 92.776 945.113, 88.564 945.348, 83.500 946.845 M 539.968 960.583 C 537.441 967.230, 533.206 996.625, 534.585 997.947 C 535.656 998.974, 547.084 1000.805, 548.817 1000.228 C 549.467 1000.011, 550 999.364, 550 998.790 C 550 997.202, 555.775 986.183, 558.742 982.110 C 560.188 980.124, 563.561 976.212, 566.238 973.416 C 570.047 969.437, 570.821 968.103, 569.802 967.279 C 568.569 966.281, 549.662 959.987, 543.734 958.601 C 541.384 958.051, 540.818 958.350, 539.968 960.583 M 104.174 974.314 C 98.868 979.963, 105.044 988.097, 111.935 984.534 C 116.608 982.117, 117.366 977.632, 113.686 974.174 C 110.683 971.354, 106.904 971.409, 104.174 974.314 M 613.311 976.632 C 612.966 977.530, 613.290 979.218, 614.030 980.382 C 620.032 989.825, 622.871 998.704, 622.963 1008.320 C 622.996 1011.700, 623.259 1012.102, 625.250 1011.820 C 627.186 1011.545, 627.547 1010.803, 627.834 1006.500 C 628.275 999.881, 626.446 991.864, 622.814 984.500 C 618.354 975.457, 614.869 972.571, 613.311 976.632 M 604.192 979.295 C 601.301 982.373, 601.421 984.128, 604.988 990.860 C 611.376 1002.918, 612.396 1010.905, 608.523 1018.554 C 607.076 1021.412, 606.416 1023.816, 606.936 1024.336 C 607.426 1024.826, 609.838 1025.453, 612.297 1025.730 C 616.733 1026.230, 616.778 1026.204, 618.134 1022.367 C 620.333 1016.143, 619.740 999.748, 617.064 992.762 C 614.748 986.719, 609.234 977.852, 607.442 977.292 C 606.861 977.110, 605.398 978.012, 604.192 979.295 M 292.028 984.426 C 290.778 987.714, 290.657 999, 291.871 999 C 292.835 999, 294.478 983.145, 293.605 982.271 C 293.303 981.969, 292.593 982.939, 292.028 984.426 M 315.796 985.147 C 312.561 986.330, 311.639 988.740, 311.738 995.750 C 311.872 1005.172, 311.690 1004.743, 315.750 1005.249 C 317.813 1005.506, 319.670 1005.572, 319.878 1005.397 C 321.283 1004.210, 320.575 983.900, 319.135 984.079 C 318.786 984.122, 317.283 984.603, 315.796 985.147 M 300 988.257 C 300 989.498, 300.440 992.047, 300.978 993.922 C 302.879 1000.550, 299.937 1004.499, 295.342 1001.488 C 292.965 999.931, 292.965 999.931, 293.589 1003.831 C 294.165 1007.436, 294.013 1007.780, 291.560 1008.396 C 290.102 1008.762, 288.479 1008.796, 287.954 1008.472 C 287.429 1008.147, 287 1009.085, 287 1010.555 C 287 1013.144, 287.136 1013.207, 291.377 1012.571 C 295.997 1011.878, 297 1012.683, 297 1017.082 C 297 1018.434, 297.700 1019, 299.375 1019 C 300.681 1019, 303.269 1019.283, 305.125 1019.629 C 308.347 1020.230, 308.237 1020.067, 302.698 1016.037 C 299.506 1013.715, 297.067 1011.298, 297.278 1010.667 C 297.488 1010.036, 299.248 1009.065, 301.189 1008.510 C 307.433 1006.723, 308.325 1005.346, 307.659 998.525 C 306.828 989.999, 305.110 986, 302.281 986 C 300.580 986, 300 986.574, 300 988.257 M 44.676 996.750 C 43.384 998.813, 39.722 1005.225, 36.538 1011 C 33.354 1016.775, 30.130 1022.388, 29.374 1023.473 C 27.189 1026.609, 27.754 1028.880, 31.250 1031.011 C 33.038 1032.101, 34.950 1032.978, 35.500 1032.961 C 36.528 1032.928, 43.117 1022.427, 50.700 1008.736 C 55.870 999.401, 56.133 996.637, 52.050 994.526 C 47.881 992.370, 47.312 992.541, 44.676 996.750 M 165.250 994.674 C 162.105 996.868, 162.428 999.868, 166.652 1007.716 C 169.510 1013.027, 180.155 1030.892, 181.648 1032.885 C 182.308 1033.765, 188.156 1030.578, 189.093 1028.826 C 190.214 1026.731, 190.271 1026.869, 182.532 1013 C 170.801 991.978, 170.132 991.269, 165.250 994.674 M 271.035 996.934 C 270.466 997.998, 270 1000.275, 270 1001.995 C 270 1004.996, 270.150 1005.108, 273.750 1004.810 C 277.190 1004.526, 277.526 1004.226, 277.818 1001.185 C 277.993 999.361, 277.601 997.224, 276.946 996.435 C 275.259 994.403, 272.254 994.657, 271.035 996.934 M 531.631 1005.750 C 531.354 1006.712, 530.986 1009.744, 530.814 1012.487 C 530.500 1017.474, 530.500 1017.474, 537 1018.642 C 541.740 1019.494, 543.685 1019.510, 544.184 1018.703 C 545.183 1017.085, 546.272 1008.249, 545.604 1007.169 C 544.969 1006.141, 537.215 1004, 534.125 1004 C 533.030 1004, 531.908 1004.788, 531.631 1005.750 M 65 1012.377 C 65 1015.510, 82.943 1021.140, 99.250 1023.124 C 106.769 1024.038, 111.231 1024.038, 118.750 1023.124 C 135.057 1021.140, 153 1015.510, 153 1012.377 C 153 1010.522, 152.855 1010.553, 144.784 1014.095 C 136.486 1017.737, 119.649 1020.973, 109 1020.973 C 98.453 1020.973, 81.697 1017.769, 73.088 1014.105 C 64.645 1010.513, 65 1010.588, 65 1012.377 M 392.667 1029.667 C 391.394 1030.940, 392.009 1034.789, 393.582 1035.393 C 396.166 1036.385, 402.830 1036.083, 403.535 1034.943 C 403.894 1034.362, 403.912 1032.787, 403.575 1031.443 C 403.031 1029.276, 402.419 1029, 398.148 1029 C 395.500 1029, 393.033 1029.300, 392.667 1029.667" stroke="none" fill="#fffcfc" fill-rule="evenodd"/></svg>