<?xml version="1.0" encoding="UTF-8"?>
<!DOCTYPE svg PUBLIC "-//W3C//DTD SVG 1.1//EN" "http://www.w3.org/Graphics/SVG/1.1/DTD/svg11.dtd">
<svg xmlns="http://www.w3.org/2000/svg" version="1.1" width="656px" height="1969px" style="shape-rendering:geometricPrecision; text-rendering:geometricPrecision; image-rendering:optimizeQuality; fill-rule:evenodd; clip-rule:evenodd" xmlns:xlink="http://www.w3.org/1999/xlink">
<g><path style="opacity:0.971" fill="#fefffe" d="M 107.5,44.5 C 123.11,45.6121 133.276,53.6121 138,68.5C 138.5,75.8258 138.666,83.1591 138.5,90.5C 142.514,90.3345 146.514,90.5012 150.5,91C 151.667,92.1667 152.833,93.3333 154,94.5C 154.667,114.833 154.667,135.167 154,155.5C 153.5,157.333 152.333,158.5 150.5,159C 122.833,159.667 95.1667,159.667 67.5,159C 66.0692,158.535 64.9025,157.701 64,156.5C 63.3333,135.5 63.3333,114.5 64,93.5C 64.9025,92.2986 66.0692,91.4652 67.5,91C 71.1516,90.5014 74.8183,90.3347 78.5,90.5C 74.9218,74.2699 79.2551,60.7699 91.5,50C 96.5861,47.028 101.919,45.1947 107.5,44.5 Z M 103.5,57.5 C 114.338,56.1898 121.838,60.5231 126,70.5C 126.5,77.1583 126.666,83.825 126.5,90.5C 114.5,90.5 102.5,90.5 90.5,90.5C 90.3337,83.825 90.5004,77.1583 91,70.5C 93.3792,64.2901 97.5459,59.9567 103.5,57.5 Z"/></g>
<g><path style="opacity:0.922" fill="#fefffe" d="M 166.5,470.5 C 178.215,469.557 182.715,474.89 180,486.5C 178.444,491.28 176.111,495.613 173,499.5C 163.037,509.452 153.871,519.952 145.5,531C 153.805,556.249 162.305,581.416 171,606.5C 171.817,609.964 171.483,613.298 170,616.5C 167.131,619.704 163.965,622.537 160.5,625C 158.167,625.667 155.833,625.667 153.5,625C 142.547,610.041 132.38,594.541 123,578.5C 119.61,574.607 115.777,571.273 111.5,568.5C 104.678,575.49 98.0111,582.657 91.5,590C 88.0105,592.911 84.3438,595.578 80.5,598C 84.8344,604.675 87.3344,611.842 88,619.5C 86.0284,623.972 82.8617,627.305 78.5,629.5C 76.8333,628.667 75.1667,627.833 73.5,627C 62.1667,617.667 50.8333,608.333 39.5,599C 35.9071,595.915 32.9071,592.415 30.5,588.5C 33.1345,580.693 38.4678,577.193 46.5,578C 51.6667,579.5 56.8333,581 62,582.5C 64.4912,579.527 66.4912,576.194 68,572.5C 75.3954,564.941 82.2287,556.941 88.5,548.5C 85.6709,545.841 82.6709,543.341 79.5,541C 61.7524,533.862 44.0857,526.529 26.5,519C 22.2873,516.316 21.454,512.816 24,508.5C 26.3116,505.354 28.8116,502.354 31.5,499.5C 33.3636,498.007 35.5303,497.34 38,497.5C 66.4912,502.388 94.9912,506.888 123.5,511C 133.6,499.477 143.933,488.144 154.5,477C 158.434,474.536 162.434,472.369 166.5,470.5 Z"/></g>
<g><path style="opacity:0.861" fill="#fefffe" d="M 105.5,476.5 C 116.45,475.77 127.117,477.103 137.5,480.5C 138.583,481.365 138.749,482.365 138,483.5C 133.167,489 128.333,494.5 123.5,500C 115.595,500.216 107.762,501.049 100,502.5C 88.9313,501.13 78.098,498.963 67.5,496C 78.1852,485.491 90.8518,478.991 105.5,476.5 Z"/></g>
<g><path style="opacity:0.879" fill="#fefffe" d="M 318.5,484.5 C 351.895,482.623 379.395,494.289 401,519.5C 406.085,532.188 401.918,537.688 388.5,536C 363.4,505.974 332.4,497.641 295.5,511C 283.717,516.784 273.717,524.784 265.5,535C 254.074,539.224 248.907,535.39 250,523.5C 254.758,516.738 260.258,510.571 266.5,505C 273.332,500.416 280.332,496.083 287.5,492C 297.783,488.678 308.116,486.178 318.5,484.5 Z"/></g>
<g><path style="opacity:0.915" fill="#fefffe" d="M 520.5,485.5 C 535.641,483.377 547.974,488.21 557.5,500C 567.167,500.333 576.833,500.667 586.5,501C 599.102,502.768 606.102,509.935 607.5,522.5C 624.51,526.023 631.343,536.356 628,553.5C 624.896,561.603 619.062,566.436 610.5,568C 596.406,568.034 582.406,568.701 568.5,570C 566.5,572 564.5,574 562.5,576C 569.492,576.5 576.492,576.666 583.5,576.5C 583.657,577.873 583.49,579.207 583,580.5C 563.064,593.37 542.897,605.537 522.5,617C 520.053,615.771 519.887,614.271 522,612.5C 528.158,606.209 534.325,599.876 540.5,593.5C 531.608,592.82 522.774,592.154 514,591.5C 513.333,590.5 513.333,589.5 514,588.5C 519.184,581.657 524.684,575.157 530.5,569C 513.78,568.941 497.114,568.275 480.5,567C 472.864,564.027 468.031,558.527 466,550.5C 464.448,542.324 466.615,535.324 472.5,529.5C 477.985,524.004 484.651,521.671 492.5,522.5C 492.078,502.609 501.411,490.276 520.5,485.5 Z"/></g>
<g><path style="opacity:0.865" fill="#fefffe" d="M 171.5,510.5 C 174.634,513.41 176.801,517.077 178,521.5C 183.52,540.485 181.854,558.819 173,576.5C 171.959,578.585 170.459,580.252 168.5,581.5C 165.358,573.206 162.192,564.873 159,556.5C 158.01,547.649 156.843,538.816 155.5,530C 156.201,527.62 157.367,525.453 159,523.5C 163.37,519.298 167.537,514.964 171.5,510.5 Z"/></g>
<g><path style="opacity:0.866" fill="#fefffe" d="M 317.5,517.5 C 342.85,515.43 363.017,524.43 378,544.5C 381.381,556.784 376.881,561.617 364.5,559C 360.997,555.577 357.664,551.91 354.5,548C 339.501,536.582 323.501,534.915 306.5,543C 304.517,544.889 302.184,546.222 299.5,547C 295.661,550.986 291.995,554.986 288.5,559C 277.465,561.963 272.632,557.796 274,546.5C 284.387,530.719 298.887,521.053 317.5,517.5 Z"/></g>
<g><path style="opacity:0.847" fill="#fefffe" d="M 48.5,533.5 C 55.9126,536.036 63.246,538.869 70.5,542C 71.777,547.481 73.1103,552.981 74.5,558.5C 69.8926,565.607 64.3926,571.941 58,577.5C 53.2611,570.967 50.2611,563.634 49,555.5C 47.5614,548.166 47.3948,540.833 48.5,533.5 Z"/></g>
<g><path style="opacity:0.899" fill="#fefffe" d="M 324.5,548.5 C 349.467,551.114 359.967,564.781 356,589.5C 348.291,606.857 335.124,613.357 316.5,609C 295.239,598.463 290.072,582.63 301,561.5C 307.122,553.86 314.955,549.527 324.5,548.5 Z"/></g>
<g><path style="opacity:0.854" fill="#fefffe" d="M 102.5,584.5 C 109.109,586.328 115.775,586.828 122.5,586C 127.202,592.845 131.202,600.012 134.5,607.5C 118.139,611.698 102.139,610.531 86.5,604C 85.5494,603.282 85.3828,602.449 86,601.5C 91.7029,595.965 97.2029,590.298 102.5,584.5 Z"/></g>
<g><path style="opacity:0.911" fill="#fdfdfd" d="M 328.5,672.5 C 329.75,672.577 330.583,673.244 331,674.5C 334.678,691.678 345.178,702.011 362.5,705.5C 355.013,707.576 348.013,710.743 341.5,715C 339.641,716.558 338.141,718.391 337,720.5C 334.213,726.354 331.713,732.354 329.5,738.5C 327.54,731.452 324.707,724.786 321,718.5C 318.795,715.96 316.295,713.793 313.5,712C 307.884,709.772 302.217,707.606 296.5,705.5C 303.361,703.156 310.028,700.323 316.5,697C 323.566,690.368 327.566,682.201 328.5,672.5 Z"/></g>
<g><path style="opacity:0.961" fill="#fefffe" d="M 500.5,683.5 C 502.288,683.215 503.955,683.548 505.5,684.5C 508.687,688.188 512.687,690.688 517.5,692C 522.981,694.216 528.647,695.716 534.5,696.5C 541.828,695.5 549.162,694.5 556.5,693.5C 568.161,696.833 579.494,700.999 590.5,706C 599.005,705.587 607.505,704.754 616,703.5C 619.569,703.286 622.902,703.953 626,705.5C 626.667,706.833 626.667,708.167 626,709.5C 622.774,715.951 620.107,722.618 618,729.5C 618.051,737.831 618.051,746.165 618,754.5C 616.315,760.04 614.481,765.54 612.5,771C 613.674,777.698 615.008,784.364 616.5,791C 614.052,799.961 611.218,808.794 608,817.5C 607.617,824.86 606.95,832.193 606,839.5C 604.063,847.274 600.23,848.441 594.5,843C 587.152,839.824 579.486,838.157 571.5,838C 559.711,831.863 547.377,830.363 534.5,833.5C 524.357,834.178 516.024,830.678 509.5,823C 504.768,821.534 500.102,819.867 495.5,818C 487.167,817.333 478.833,817.333 470.5,818C 465.769,820.812 463.602,819.645 464,814.5C 467.161,808.853 470.828,803.52 475,798.5C 475.5,797 476,795.5 476.5,794C 475.541,791.88 475.374,789.713 476,787.5C 480.932,775.443 485.099,763.109 488.5,750.5C 487.402,743.197 487.235,735.864 488,728.5C 491.75,713.257 495.916,698.257 500.5,683.5 Z M 536.5,738.5 C 538.193,739.475 539.693,740.808 541,742.5C 543.5,746.333 546,750.167 548.5,754C 549.908,754.315 551.241,753.982 552.5,753C 556.397,749.469 560.564,746.303 565,743.5C 568.048,747.605 570.548,751.939 572.5,756.5C 566.676,758.983 561.676,762.649 557.5,767.5C 560.673,774.153 564.673,780.32 569.5,786C 565.976,789.025 562.309,791.858 558.5,794.5C 555.092,789.118 551.592,783.785 548,778.5C 545.21,776.169 542.376,776.336 539.5,779C 534.385,782.445 529.552,786.278 525,790.5C 522.126,787.247 519.626,783.747 517.5,780C 523.825,774.014 530.492,768.348 537.5,763C 534.199,757.102 530.533,751.435 526.5,746C 526.759,744.739 527.426,743.739 528.5,743C 531.684,742.246 534.351,740.746 536.5,738.5 Z"/></g>
<g><path style="opacity:0.934" fill="#fefffe" d="M 95.5,689.5 C 128.854,685.441 155.354,696.774 175,723.5C 183.101,736.311 186.601,750.311 185.5,765.5C 185.036,803.617 166.703,828.451 130.5,840C 89.2263,848.272 58.7263,834.106 39,797.5C 28.5757,768.119 32.2423,740.786 50,715.5C 54.8793,709.954 60.3793,705.12 66.5,701C 75.7553,695.865 85.4219,692.032 95.5,689.5 Z M 107.5,709.5 C 113.377,709.208 117.21,711.875 119,717.5C 118.678,725.463 118.512,733.463 118.5,741.5C 112.833,741.5 107.167,741.5 101.5,741.5C 101.442,733.47 101.275,725.47 101,717.5C 102.034,713.685 104.201,711.018 107.5,709.5 Z M 70.5,717.5 C 71.2389,717.369 71.9056,717.536 72.5,718C 78.3482,723.681 84.0149,729.515 89.5,735.5C 86.1738,737.994 83.3405,740.994 81,744.5C 74.8604,738.36 68.6937,732.194 62.5,726C 65.3714,723.297 68.0381,720.464 70.5,717.5 Z M 147.5,717.5 C 150.631,720.129 153.631,722.962 156.5,726C 150.652,732.015 144.652,737.848 138.5,743.5C 135.473,741.14 132.806,738.473 130.5,735.5C 136.174,729.468 141.84,723.468 147.5,717.5 Z M 106.5,751.5 C 115.878,751.686 121.545,756.353 123.5,765.5C 120.892,777.527 113.892,781.36 102.5,777C 94.8921,771.514 93.7254,765.014 99,757.5C 101.114,754.879 103.614,752.879 106.5,751.5 Z M 58.5,758.5 C 67.5062,758.334 76.5062,758.5 85.5,759C 84.5333,763.401 84.2,767.901 84.5,772.5C 74.7274,772.948 65.0607,772.448 55.5,771C 50.8905,765.491 51.8905,761.325 58.5,758.5 Z M 134.5,758.5 C 143.173,758.334 151.84,758.5 160.5,759C 165.8,760.095 167.633,763.262 166,768.5C 165.167,770 164,771.167 162.5,772C 153.173,772.5 143.839,772.666 134.5,772.5C 134.5,767.833 134.5,763.167 134.5,758.5 Z M 136.5,788.5 C 142.932,794.492 149.265,800.659 155.5,807C 152.631,810.204 149.465,813.037 146,815.5C 141.557,810.97 136.89,806.637 132,802.5C 130.634,800.63 129.467,798.63 128.5,796.5C 130.359,794.808 132.359,793.308 134.5,792C 135.823,791.184 136.489,790.017 136.5,788.5 Z M 81.5,789.5 C 84.9378,791.759 88.2711,794.259 91.5,797C 86.0136,803.453 80.1802,809.62 74,815.5C 72.8289,814.107 71.3289,813.273 69.5,813C 68.0716,810.815 66.4049,808.815 64.5,807C 70.3696,801.298 76.0362,795.465 81.5,789.5 Z M 101.5,789.5 C 107.153,790.78 112.82,790.78 118.5,789.5C 118.666,798.839 118.5,808.173 118,817.5C 114.716,822.777 110.216,824.277 104.5,822C 103.54,820.581 102.707,819.081 102,817.5C 101.5,808.173 101.334,798.839 101.5,789.5 Z"/></g>
<g><path style="opacity:0.939" fill="#fefffe" d="M 280.5,728.5 C 302.212,726.522 318.546,734.855 329.5,753.5C 346.829,732.436 368.163,727.27 393.5,738C 412.292,750.096 419.792,767.263 416,789.5C 407.362,817.921 388.195,829.754 358.5,825C 344.717,821.029 334.217,812.862 327,800.5C 314.568,818.655 297.401,825.488 275.5,821C 246.878,811.276 235.712,791.443 242,761.5C 248.305,742.683 261.139,731.683 280.5,728.5 Z M 286.5,749.5 C 288.179,749.892 289.846,750.392 291.5,751C 281.67,759.83 272.17,768.997 263,778.5C 261.73,768.194 265.564,760.027 274.5,754C 278.432,751.972 282.432,750.472 286.5,749.5 Z M 369.5,753.5 C 371.179,753.892 372.846,754.392 374.5,755C 364.67,763.83 355.17,772.997 346,782.5C 344.73,772.194 348.564,764.027 357.5,758C 361.432,755.972 365.432,754.472 369.5,753.5 Z M 307.5,764.5 C 309.225,764.843 309.725,765.843 309,767.5C 299.137,777.697 288.971,787.53 278.5,797C 277.5,797.667 276.5,797.667 275.5,797C 286.369,786.298 297.035,775.465 307.5,764.5 Z M 390.5,768.5 C 392.225,768.843 392.725,769.843 392,771.5C 382.137,781.697 371.971,791.53 361.5,801C 360.5,801.667 359.5,801.667 358.5,801C 369.369,790.298 380.035,779.465 390.5,768.5 Z M 311.5,772.5 C 311.6,790.237 302.6,799.403 284.5,800C 293.702,790.965 302.702,781.798 311.5,772.5 Z M 394.5,776.5 C 394.6,794.237 385.6,803.403 367.5,804C 376.702,794.965 385.702,785.798 394.5,776.5 Z"/></g>
<g><path style="opacity:0.855" fill="#fefffe" d="M 101.5,908.5 C 106.167,908.5 110.833,908.5 115.5,908.5C 115.5,915.5 115.5,922.5 115.5,929.5C 126.268,929.377 136.601,931.377 146.5,935.5C 150.535,930.597 154.202,925.43 157.5,920C 158.833,919.333 160.167,919.333 161.5,920C 164.333,922.167 167.167,924.333 170,926.5C 170.635,928.635 170.301,930.635 169,932.5C 166.533,936.6 163.699,940.434 160.5,944C 169.356,951.858 177.856,960.024 186,968.5C 186.667,971.167 186.667,973.833 186,976.5C 176.833,983 167.667,989.5 158.5,996C 160.041,997.579 161.208,999.413 162,1001.5C 161.549,995.183 164.383,992.016 170.5,992C 177.058,1002.29 183.225,1012.79 189,1023.5C 189.808,1025.58 189.641,1027.58 188.5,1029.5C 185.772,1030.86 183.439,1032.69 181.5,1035C 185.505,1041.18 188.838,1047.68 191.5,1054.5C 189.558,1058 186.558,1060.33 182.5,1061.5C 180.171,1060 178.337,1058 177,1055.5C 171.143,1045.79 165.809,1035.79 161,1025.5C 160.059,1023.94 158.892,1022.61 157.5,1021.5C 124.833,1036.17 92.1667,1036.17 59.5,1021.5C 52.1272,1034.56 44.4605,1047.56 36.5,1060.5C 32.6744,1061.2 29.1744,1060.2 26,1057.5C 25.3333,1055.17 25.3333,1052.83 26,1050.5C 29.4185,1045.33 32.5852,1040 35.5,1034.5C 33.2581,1032.46 30.7581,1030.79 28,1029.5C 27.245,1026.7 27.5783,1024.03 29,1021.5C 34.0048,1011.16 39.8381,1001.33 46.5,992C 52.6173,992.016 55.4507,995.183 55,1001.5C 55.9704,999.726 56.8037,997.893 57.5,996C 50.3871,989.937 42.7204,984.604 34.5,980C 29.7513,977.311 28.418,973.478 30.5,968.5C 38.5,959.833 46.8333,951.5 55.5,943.5C 53,939.833 50.5,936.167 48,932.5C 46.6986,930.635 46.3653,928.635 47,926.5C 49.8333,924.333 52.6667,922.167 55.5,920C 56.8333,919.333 58.1667,919.333 59.5,920C 62.8763,925.253 66.3763,930.42 70,935.5C 74.2149,933.206 78.7149,931.706 83.5,931C 89.5147,930.576 95.5147,930.076 101.5,929.5C 101.5,922.5 101.5,915.5 101.5,908.5 Z M 85.5,994.5 C 75.6489,991.577 65.9822,988.077 56.5,984C 52.9947,981.325 49.6614,978.491 46.5,975.5C 54.6657,966.169 63.6657,957.669 73.5,950C 96.8333,942.667 120.167,942.667 143.5,950C 153.334,957.669 162.334,966.169 170.5,975.5C 167.671,978.159 164.671,980.659 161.5,983C 151.833,986.833 142.167,990.667 132.5,994.5C 131.959,992.477 132.459,990.477 134,988.5C 138.338,973.325 134.171,961.158 121.5,952C 103.908,945.418 91.0745,950.585 83,967.5C 80.5026,976.882 81.3359,985.882 85.5,994.5 Z M 106.5,971.5 C 110.933,971.928 113.933,974.261 115.5,978.5C 113.909,983.604 110.576,985.437 105.5,984C 102.808,982.12 101.641,979.62 102,976.5C 103.707,974.963 105.207,973.296 106.5,971.5 Z M 65.5,1010.5 C 93.9634,1025.14 122.463,1025.14 151,1010.5C 151.5,1011 152,1011.5 152.5,1012C 138.876,1019.41 124.209,1022.91 108.5,1022.5C 93.3899,1022.7 79.0566,1019.53 65.5,1013C 64.4019,1012.23 64.4019,1011.4 65.5,1010.5 Z"/></g>
<g><path style="opacity:0.2" fill="#fefffe" d="M 469.5,970.5 C 470.833,970.5 472.167,970.5 473.5,970.5C 474.244,973.95 472.91,975.616 469.5,975.5C 469.5,973.833 469.5,972.167 469.5,970.5 Z"/></g>
</svg>
