<?xml version="1.0" encoding="UTF-8"?>
<!DOCTYPE svg PUBLIC "-//W3C//DTD SVG 1.1//EN" "http://www.w3.org/Graphics/SVG/1.1/DTD/svg11.dtd">
<svg xmlns="http://www.w3.org/2000/svg" version="1.1" width="394px" height="469px" style="shape-rendering:geometricPrecision; text-rendering:geometricPrecision; image-rendering:optimizeQuality; fill-rule:evenodd; clip-rule:evenodd" xmlns:xlink="http://www.w3.org/1999/xlink">
<g><path style="opacity:0.972" fill="#010101" d="M 195.5,-0.5 C 206.167,-0.5 216.833,-0.5 227.5,-0.5C 250.579,2.53346 272.912,8.86679 294.5,18.5C 302.989,24.1627 311.322,29.9961 319.5,36C 325.017,42.1876 330.183,48.6876 335,55.5C 343.942,70.9905 350.942,87.3239 356,104.5C 359.705,131.821 364.205,158.988 369.5,186C 376.4,204.198 383.4,222.365 390.5,240.5C 391.223,242.782 391.557,245.116 391.5,247.5C 389.266,247.62 387.099,247.287 385,246.5C 380.766,243.992 376.6,241.492 372.5,239C 369.667,234.833 366.167,231.333 362,228.5C 361.501,232.016 361.667,235.516 362.5,239C 364.003,244.907 365.503,250.74 367,256.5C 369.937,284.572 366.437,311.738 356.5,338C 350.42,352.263 343.586,366.097 336,379.5C 334.867,381.211 333.367,381.711 331.5,381C 330.842,378.273 329.675,375.773 328,373.5C 325.536,378.211 322.703,382.711 319.5,387C 315.534,389.964 311.867,393.297 308.5,397C 306.655,398.128 304.655,398.628 302.5,398.5C 303.977,393.64 304.81,388.64 305,383.5C 298.689,393.478 290.189,400.978 279.5,406C 264.439,423.061 248.439,439.061 231.5,454C 223.658,459.872 215.325,464.705 206.5,468.5C 202.5,468.5 198.5,468.5 194.5,468.5C 185.486,465.081 177.152,460.248 169.5,454C 162,446.5 154.5,439 147,431.5C 140.133,421.79 132.3,412.79 123.5,404.5C 113.618,400.322 105.118,394.322 98,386.5C 97.5045,388.473 97.3379,390.473 97.5,392.5C 95.4727,392.662 93.4727,392.495 91.5,392C 84.2943,384.854 78.2943,376.854 73.5,368C 64.1983,347.383 57.6983,325.883 54,303.5C 48.7879,307.691 42.9546,310.857 36.5,313C 24.3524,315.922 12.0191,317.089 -0.5,316.5C -0.5,315.5 -0.5,314.5 -0.5,313.5C 11.8285,306.343 22.4951,297.177 31.5,286C 31.3333,285.5 31.1667,285 31,284.5C 21.1724,289.494 10.6724,291.827 -0.5,291.5C -0.5,290.167 -0.5,288.833 -0.5,287.5C 1.31166,287.229 2.97832,286.562 4.5,285.5C 6.73021,281.64 9.56354,278.306 13,275.5C 19.7842,265.838 25.6175,255.505 30.5,244.5C 34.6514,230.439 37.3181,216.105 38.5,201.5C 30.5646,203.429 22.5646,203.762 14.5,202.5C 23.2443,192.46 32.411,182.793 42,173.5C 42.859,143.637 48.359,114.637 58.5,86.5C 79.5268,41.4937 114.193,13.3271 162.5,2C 173.879,2.14846 184.879,1.31512 195.5,-0.5 Z"/></g>
<g><path style="opacity:1" fill="#fbfbfb" d="M 219.5,195.5 C 218.523,198.287 218.19,201.287 218.5,204.5C 219.791,204.737 220.791,204.404 221.5,203.5C 225.009,201.774 228.675,200.441 232.5,199.5C 233.492,199.328 234.158,199.662 234.5,200.5C 227.518,204.496 221.518,209.663 216.5,216C 208.167,216.667 199.833,216.667 191.5,216C 190.333,214.833 189.167,213.667 188,212.5C 187.813,205.919 187.313,199.419 186.5,193C 169.792,192.21 153.125,192.71 136.5,194.5C 125.851,197.324 116.517,202.491 108.5,210C 102.231,211.257 95.8979,211.757 89.5,211.5C 89.9118,201.48 90.5785,191.48 91.5,181.5C 136.558,174.316 178.724,159.316 218,136.5C 218.5,136.667 219,136.833 219.5,137C 211.019,146.982 202.353,156.815 193.5,166.5C 195.765,167.647 198.098,167.814 200.5,167C 217.671,162.453 234.671,157.12 251.5,151C 271.3,142.737 290.8,133.904 310,124.5C 312.151,124.643 313.818,125.643 315,127.5C 316.75,130.246 317.75,133.246 318,136.5C 318.579,155.84 318.413,175.174 317.5,194.5C 307.655,191.37 297.655,188.537 287.5,186C 286.62,184.644 286.286,183.144 286.5,181.5C 270.226,179.021 253.892,178.854 237.5,181C 231.691,182.202 226.024,183.869 220.5,186C 219.549,189.057 219.216,192.223 219.5,195.5 Z"/></g>
<g><path style="opacity:1" fill="#f4f4f4" d="M 267.5,194.5 C 274.321,193.345 281.321,193.179 288.5,194C 298.294,195.699 307.961,197.866 317.5,200.5C 317.5,205.833 317.5,211.167 317.5,216.5C 312.821,216.666 308.155,216.499 303.5,216C 294.761,203.46 282.761,196.294 267.5,194.5 Z"/></g>
<g><path style="opacity:1" fill="#7c7c7c" d="M 219.5,195.5 C 218.964,198.698 219.631,201.365 221.5,203.5C 220.791,204.404 219.791,204.737 218.5,204.5C 218.19,201.287 218.523,198.287 219.5,195.5 Z"/></g>
<g><path style="opacity:1" fill="#7d7d7d" d="M 234.5,200.5 C 234.158,199.662 233.492,199.328 232.5,199.5C 234.225,198.095 236.225,197.595 238.5,198C 237.307,199.095 235.973,199.928 234.5,200.5 Z"/></g>
<g><path style="opacity:1" fill="#fcbe00" d="M 114.5,264.5 C 106.084,246.735 109.084,230.902 123.5,217C 127.788,213.19 132.788,211.023 138.5,210.5C 142.446,209.473 146.446,209.306 150.5,210C 139.03,228.614 127.03,246.781 114.5,264.5 Z"/></g>
<g><path style="opacity:1" fill="#fd8100" d="M 162.5,211.5 C 149.913,233.064 136.579,254.064 122.5,274.5C 118.883,271.936 116.216,268.603 114.5,264.5C 127.03,246.781 139.03,228.614 150.5,210C 146.446,209.306 142.446,209.473 138.5,210.5C 138.611,209.883 138.944,209.383 139.5,209C 147.493,207.807 155.159,208.641 162.5,211.5 Z"/></g>
<g><path style="opacity:1" fill="#f9bb00" d="M 225.5,260.5 C 224.174,256.386 223.507,251.886 223.5,247C 222.914,228.749 231.247,216.582 248.5,210.5C 252.195,209.54 255.861,209.54 259.5,210.5C 248.499,227.481 237.166,244.148 225.5,260.5 Z"/></g>
<g><path style="opacity:1" fill="#fc8000" d="M 274.5,211.5 C 261.547,232.803 248.547,254.136 235.5,275.5C 230.913,271.323 227.58,266.323 225.5,260.5C 237.166,244.148 248.499,227.481 259.5,210.5C 255.861,209.54 252.195,209.54 248.5,210.5C 252.034,208.952 255.867,208.286 260,208.5C 265.229,208.078 270.062,209.078 274.5,211.5 Z"/></g>
<g><path style="opacity:1" fill="#fd1200" d="M 162.5,211.5 C 166.054,212.769 169.054,214.769 171.5,217.5C 158.306,238.56 145.639,259.893 133.5,281.5C 129.053,280.385 125.387,278.052 122.5,274.5C 136.579,254.064 149.913,233.064 162.5,211.5 Z"/></g>
<g><path style="opacity:1" fill="#fd1100" d="M 274.5,211.5 C 278.683,213.087 282.35,215.421 285.5,218.5C 284.325,218.281 283.325,218.614 282.5,219.5C 271.919,238.33 261.086,256.997 250,275.5C 248.589,277.65 247.755,279.984 247.5,282.5C 242.998,280.992 238.998,278.659 235.5,275.5C 248.547,254.136 261.547,232.803 274.5,211.5 Z"/></g>
<g><path style="opacity:1" fill="#f4f4f4" d="M 74.5,242.5 C 76.6502,251.323 80.3169,259.323 85.5,266.5C 88.8072,271.977 90.3072,277.977 90,284.5C 76.5189,272.537 69.1856,257.537 68,239.5C 65.975,231.404 66.1417,223.404 68.5,215.5C 73.0372,214.145 76.2039,215.812 78,220.5C 78.5788,222.649 79.0788,224.815 79.5,227C 78.4131,229.138 76.9131,230.972 75,232.5C 74.5017,235.817 74.335,239.15 74.5,242.5 Z"/></g>
<g><path style="opacity:1" fill="#f4f4f4" d="M 321.5,265.5 C 325.334,259.668 328,253.335 329.5,246.5C 330.973,243.983 331.64,241.15 331.5,238C 331.494,235.967 331.161,234.134 330.5,232.5C 326.412,229.259 325.578,225.259 328,220.5C 329.62,218.759 331.12,216.925 332.5,215C 335.827,214.03 337.993,215.197 339,218.5C 339.308,234.345 336.641,249.678 331,264.5C 327.66,271.508 323.16,277.674 317.5,283C 316.4,283.432 315.733,282.932 315.5,281.5C 316.641,278.245 317.474,274.911 318,271.5C 319.442,269.609 320.609,267.609 321.5,265.5 Z"/></g>
<g><path style="opacity:1" fill="#dddddd" d="M 89.5,216.5 C 94.3614,216.063 99.0281,216.563 103.5,218C 99.0281,219.437 94.3614,219.937 89.5,219.5C 89.5,218.5 89.5,217.5 89.5,216.5 Z"/></g>
<g><path style="opacity:1" fill="#fd7e00" d="M 171.5,217.5 C 174.833,218.833 177.167,221.167 178.5,224.5C 179.498,226.45 179.332,228.45 178,230.5C 166.728,248.042 156.228,266.042 146.5,284.5C 145.5,284.5 144.5,284.5 143.5,284.5C 139.584,284.975 136.251,283.975 133.5,281.5C 145.639,259.893 158.306,238.56 171.5,217.5 Z"/></g>
<g><path style="opacity:1" fill="#fd7e00" d="M 285.5,218.5 C 288.243,220.239 290.243,222.573 291.5,225.5C 291.538,228.181 290.871,230.681 289.5,233C 279.669,249.812 269.836,266.646 260,283.5C 258.644,284.38 257.144,284.714 255.5,284.5C 252.579,284.717 249.913,284.051 247.5,282.5C 247.755,279.984 248.589,277.65 250,275.5C 261.086,256.997 271.919,238.33 282.5,219.5C 283.325,218.614 284.325,218.281 285.5,218.5 Z"/></g>
<g><path style="opacity:1" fill="#fa0a00" d="M 178.5,224.5 C 183.593,230.824 186.26,238.157 186.5,246.5C 185.059,261.771 177.726,273.271 164.5,281C 157.791,284.713 150.791,285.879 143.5,284.5C 144.5,284.5 145.5,284.5 146.5,284.5C 156.228,266.042 166.728,248.042 178,230.5C 179.332,228.45 179.498,226.45 178.5,224.5 Z"/></g>
<g><path style="opacity:1" fill="#fb0c00" d="M 291.5,225.5 C 292.885,226.574 294.051,227.907 295,229.5C 302.783,251.174 296.949,268.34 277.5,281C 273.128,282.442 268.795,283.775 264.5,285C 261.304,285.805 258.304,285.638 255.5,284.5C 257.144,284.714 258.644,284.38 260,283.5C 269.836,266.646 279.669,249.812 289.5,233C 290.871,230.681 291.538,228.181 291.5,225.5 Z"/></g>
<g><path style="opacity:1" fill="#eeeeee" d="M 86.5,265.5 C 80.3525,256.516 77.0192,246.516 76.5,235.5C 77.0346,231.666 78.5346,230.999 81,233.5C 83.6735,244.033 85.5069,254.7 86.5,265.5 Z"/></g>
<g><path style="opacity:1" fill="#ebebeb" d="M 329.5,234.5 C 329.874,238.336 329.874,242.336 329.5,246.5C 326.761,251.978 323.928,257.644 321,263.5C 320.31,264.738 319.81,264.738 319.5,263.5C 321.446,252.993 323.446,242.493 325.5,232C 327.658,230.566 328.991,231.4 329.5,234.5 Z"/></g>
<g><path style="opacity:1" fill="#686868" d="M 330.5,232.5 C 331.161,234.134 331.494,235.967 331.5,238C 331.64,241.15 330.973,243.983 329.5,246.5C 329.874,242.336 329.874,238.336 329.5,234.5C 330.338,234.158 330.672,233.492 330.5,232.5 Z"/></g>
<g><path style="opacity:1" fill="#454545" d="M 329.5,246.5 C 328,253.335 325.334,259.668 321.5,265.5C 320.504,265.414 319.671,265.748 319,266.5C 318.26,265.251 318.427,264.251 319.5,263.5C 319.81,264.738 320.31,264.738 321,263.5C 323.928,257.644 326.761,251.978 329.5,246.5 Z"/></g>
<g><path style="opacity:1" fill="#6b6b6b" d="M 76.5,235.5 C 77.0192,246.516 80.3525,256.516 86.5,265.5C 86.5,266.167 86.1667,266.5 85.5,266.5C 80.3169,259.323 76.6502,251.323 74.5,242.5C 75.1667,240.167 75.8333,237.833 76.5,235.5 Z"/></g>
<g><path style="opacity:1" fill="#fbfbfb" d="M 94.5,263.5 C 95.675,263.281 96.675,263.614 97.5,264.5C 109.382,291.638 130.049,303.138 159.5,299C 171.165,296.002 181.165,290.168 189.5,281.5C 190.308,283.423 190.808,285.423 191,287.5C 191.833,302.844 191.666,318.178 190.5,333.5C 185.956,336.42 183.623,340.587 183.5,346C 183.793,350.338 184.793,354.505 186.5,358.5C 185.833,358.833 185.167,359.167 184.5,359.5C 175.239,356.128 165.739,353.461 156,351.5C 145.096,352.534 134.263,354.034 123.5,356C 117.584,356.807 111.75,356.641 106,355.5C 104.915,350.563 104.248,345.563 104,340.5C 103.789,323.812 103.122,307.145 102,290.5C 99.4961,281.495 96.9961,272.495 94.5,263.5 Z"/></g>
<g><path style="opacity:1" fill="#f7f7f7" d="M 196.5,267.5 C 201.511,267.334 206.511,267.501 211.5,268C 213.886,271.08 214.886,274.58 214.5,278.5C 212.134,314.461 210.634,350.461 210,386.5C 207.5,388.536 204.833,388.87 202,387.5C 200.95,375.469 199.617,363.469 198,351.5C 197.858,325.136 197.024,298.802 195.5,272.5C 195.728,270.793 196.062,269.126 196.5,267.5 Z"/></g>
<g><path style="opacity:1" fill="#fcfcfc" d="M 221.5,360.5 C 221.666,354.824 221.499,349.157 221,343.5C 220.768,342.263 220.268,341.263 219.5,340.5C 217.067,335.839 216.067,330.839 216.5,325.5C 217.408,311.119 218.741,296.786 220.5,282.5C 237.753,300.09 258.087,304.59 281.5,296C 293.975,290.192 303.141,281.025 309,268.5C 309.893,267.289 310.726,267.289 311.5,268.5C 308.618,277.265 305.451,285.932 302,294.5C 298.701,313.714 296.368,333.047 295,352.5C 293.06,362.653 289.727,372.319 285,381.5C 282.853,382.476 280.686,382.309 278.5,381C 264.5,374.333 250.5,367.667 236.5,361C 231.511,360.501 226.511,360.334 221.5,360.5 Z"/></g>
<g><path style="opacity:1" fill="#f2f2f2" d="M 189.5,341.5 C 191.06,343.156 192.06,345.156 192.5,347.5C 192.584,360.181 191.251,359.848 188.5,346.5C 188.592,344.742 188.925,343.076 189.5,341.5 Z"/></g>
<g><path style="opacity:1" fill="#838383" d="M 189.5,341.5 C 190.209,340.596 191.209,340.263 192.5,340.5C 192.5,342.833 192.5,345.167 192.5,347.5C 192.06,345.156 191.06,343.156 189.5,341.5 Z"/></g>
<g><path style="opacity:1" fill="#4d4d4d" d="M 219.5,340.5 C 220.268,341.263 220.768,342.263 221,343.5C 221.499,349.157 221.666,354.824 221.5,360.5C 220.671,353.991 220.005,347.324 219.5,340.5 Z"/></g>
<g><path style="opacity:1" fill="#f4f4f4" d="M 135.5,361.5 C 144.506,361.334 153.506,361.5 162.5,362C 172.127,364.823 181.794,367.49 191.5,370C 194.803,375.374 196.803,381.208 197.5,387.5C 168.722,382.816 140.722,375.483 113.5,365.5C 114.025,364.808 114.692,364.308 115.5,364C 122.412,363.937 129.079,363.103 135.5,361.5 Z"/></g>
<g><path style="opacity:1" fill="#f7f7f7" d="M 216.5,367.5 C 220.846,367.334 225.179,367.501 229.5,368C 240.806,371.912 251.806,376.579 262.5,382C 246.714,382.663 231.047,384.163 215.5,386.5C 215.407,380.137 215.74,373.804 216.5,367.5 Z"/></g>
<g><path style="opacity:1" fill="#fbfbfb" d="M 249.5,390.5 C 259.889,389.859 269.889,390.526 279.5,392.5C 249.896,426.984 213.23,438.151 169.5,426C 145.147,414.652 126.147,397.318 112.5,374C 125.855,378.347 139.189,383.013 152.5,388C 169.899,392.013 187.399,395.513 205,398.5C 219.751,395.269 234.584,392.603 249.5,390.5 Z"/></g>
<g><path style="opacity:1" fill="#4e4e4e" d="M 249.5,390.5 C 259.653,389.506 269.986,389.172 280.5,389.5C 280.737,390.791 280.404,391.791 279.5,392.5C 269.889,390.526 259.889,389.859 249.5,390.5 Z"/></g>
<g><path style="opacity:1" fill="#f5f5f5" d="M 165.5,434.5 C 177.145,440.277 189.479,443.61 202.5,444.5C 205.5,444.333 208.5,444.167 211.5,444C 219.584,441.605 227.584,439.272 235.5,437C 228.693,444.145 221.027,450.145 212.5,455C 200.519,459.582 189.519,457.915 179.5,450C 177.612,447.81 175.445,445.977 173,444.5C 170.259,441.271 167.759,437.938 165.5,434.5 Z"/></g>
</svg>
