<?xml version="1.0" encoding="UTF-8"?>
<!DOCTYPE svg PUBLIC "-//W3C//DTD SVG 1.1//EN" "http://www.w3.org/Graphics/SVG/1.1/DTD/svg11.dtd">
<svg xmlns="http://www.w3.org/2000/svg" version="1.1" width="370px" height="80px" style="shape-rendering:geometricPrecision; text-rendering:geometricPrecision; image-rendering:optimizeQuality; fill-rule:evenodd; clip-rule:evenodd" xmlns:xlink="http://www.w3.org/1999/xlink">
<g><path style="opacity:0.906" fill="#000000" d="M 296.5,2.5 C 299.249,2.27391 301.916,2.60724 304.5,3.5C 305.768,8.1265 307.768,12.4598 310.5,16.5C 312.499,14.5065 313.999,12.1732 315,9.5C 316.572,7.43722 318.405,6.77055 320.5,7.5C 322.717,6.42772 325.05,5.76105 327.5,5.5C 330.744,6.61774 334.077,7.45107 337.5,8C 342.124,11.4408 342.791,15.6074 339.5,20.5C 339.997,22.8183 340.33,25.1516 340.5,27.5C 338.833,27.5 337.167,27.5 335.5,27.5C 335.66,25.8008 335.494,24.1341 335,22.5C 334.713,24.8907 334.213,27.2241 333.5,29.5C 334.933,32.333 335.6,35.333 335.5,38.5C 333.833,38.5 332.167,38.5 330.5,38.5C 330.002,35.5131 329.502,32.5131 329,29.5C 327.114,33.4402 324.614,36.9402 321.5,40C 323.57,44.4084 326.07,48.5751 329,52.5C 333.667,55.8333 337.667,59.8333 341,64.5C 341.205,66.5825 341.038,68.7491 340.5,71C 332.091,73.9394 324.924,72.1061 319,65.5C 316.667,62.1667 314.333,58.8333 312,55.5C 309.623,59.2896 307.623,63.2896 306,67.5C 303.357,68.9362 301.523,71.1028 300.5,74C 298.801,74.3932 297.301,73.8932 296,72.5C 292.698,72.802 289.365,72.802 286,72.5C 285.654,70.7818 285.154,69.1151 284.5,67.5C 287.528,63.6388 290.361,59.6388 293,55.5C 294.756,50.3085 296.59,45.1419 298.5,40C 296.218,33.8863 294.551,34.0529 293.5,40.5C 292.349,41.731 291.183,41.731 290,40.5C 289.605,38.8214 289.772,37.1547 290.5,35.5C 288.406,30.3674 287.073,25.0341 286.5,19.5C 288.43,16.1275 289.596,12.4609 290,8.5C 292.896,7.21947 295.063,5.21947 296.5,2.5 Z"/></g>
<g><path style="opacity:0.906" fill="#000000" d="M 144.5,3.5 C 156.04,2.73331 165.54,6.73331 173,15.5C 176.622,22.2291 177.289,29.2291 175,36.5C 172.209,41.0942 169.709,45.7609 167.5,50.5C 167.936,53.1786 168.436,55.8453 169,58.5C 170.977,61.3116 173.144,63.9783 175.5,66.5C 174.112,69.0789 172.612,69.0789 171,66.5C 171.958,68.7867 171.124,70.4534 168.5,71.5C 165.833,70.1667 163.167,70.1667 160.5,71.5C 159.167,70.5 157.833,69.5 156.5,68.5C 155.549,69.3256 154.549,69.4922 153.5,69C 152.624,66.6243 150.958,65.1243 148.5,64.5C 148.138,59.4727 146.638,54.8061 144,50.5C 144.275,56.8178 144.275,63.1511 144,69.5C 142.853,70.4581 141.853,70.1247 141,68.5C 140.3,70.032 139.134,71.032 137.5,71.5C 133.734,70.5864 129.9,69.9197 126,69.5C 125.834,53.6384 125.001,37.805 123.5,22C 123.037,15.2557 125.704,10.2557 131.5,7C 135.86,5.41714 140.194,4.25047 144.5,3.5 Z M 140.5,22.5 C 144.637,22.1463 148.637,22.6463 152.5,24C 156.792,28.1797 156.126,31.513 150.5,34C 140.83,36.0199 137.496,32.1866 140.5,22.5 Z"/></g>
<g><path style="opacity:0.909" fill="#000000" d="M 193.5,3.5 C 203.2,3.00894 212.2,5.1756 220.5,10C 226.899,16.6985 228.899,24.5319 226.5,33.5C 223.728,33.5952 221.728,34.9285 220.5,37.5C 221.803,39.9676 223.303,42.301 225,44.5C 225.167,46 225.333,47.5 225.5,49C 224.88,54.4337 223.88,59.767 222.5,65C 223.069,68.8173 223.403,72.6506 223.5,76.5C 221.549,76.7733 220.049,76.1066 219,74.5C 218.578,71.7644 218.578,69.0977 219,66.5C 212.883,71.8262 205.716,74.3262 197.5,74C 193.833,74.6667 190.167,74.6667 186.5,74C 184.069,73.7051 182.236,72.5384 181,70.5C 180.823,58.2577 180.323,46.091 179.5,34C 180.309,28.5829 180.809,23.0829 181,17.5C 182.245,10.0944 186.412,5.42772 193.5,3.5 Z M 197.5,23.5 C 200.455,24.1587 203.455,24.4921 206.5,24.5C 206.688,26.1033 206.188,27.4366 205,28.5C 202.404,26.9799 199.571,26.1466 196.5,26C 197.252,25.3292 197.586,24.4959 197.5,23.5 Z M 195.5,35.5 C 196.314,37.631 196.814,39.9644 197,42.5C 198.889,44.4828 200.222,46.8162 201,49.5C 206.483,50.6277 207.65,53.4611 204.5,58C 201.603,59.7367 198.603,61.2367 195.5,62.5C 195.037,53.5356 195.037,44.5356 195.5,35.5 Z"/></g>
<g><path style="opacity:0.915" fill="#000000" d="M 249.5,4.5 C 260.231,3.0186 269.064,6.35193 276,14.5C 278.723,17.5568 281.056,20.8901 283,24.5C 289.651,42.7002 284.818,57.2002 268.5,68C 255.445,73.9794 243.945,71.8128 234,61.5C 225.396,46.548 225.396,31.548 234,16.5C 238.803,11.8432 243.97,7.84321 249.5,4.5 Z M 252.5,22.5 C 253.92,23.8664 255.42,25.1998 257,26.5C 258.261,26.2409 259.261,25.5742 260,24.5C 257.897,34.4647 254.73,34.798 250.5,25.5C 251.193,24.4822 251.859,23.4822 252.5,22.5 Z M 266.5,31.5 C 267.163,33.6413 267.497,35.9746 267.5,38.5C 267.614,41.3636 267.114,44.0302 266,46.5C 264.542,44.04 262.709,41.8734 260.5,40C 263.864,38.0989 265.864,35.2656 266.5,31.5 Z M 244.5,32.5 C 247.301,34.2192 249.301,36.7192 250.5,40C 249.213,41.4095 248.046,42.9095 247,44.5C 245.011,40.747 244.178,36.747 244.5,32.5 Z M 254.5,46.5 C 259.831,50.2057 259.165,51.539 252.5,50.5C 253.18,49.1401 253.847,47.8068 254.5,46.5 Z"/></g>
<g><path style="opacity:0.913" fill="#000000" d="M 90.5,5.5 C 100.023,5.01455 106.19,9.34789 109,18.5C 113.637,34.047 117.803,49.7136 121.5,65.5C 120.253,67.0421 120.253,68.5421 121.5,70C 120.687,71.803 119.52,73.303 118,74.5C 116.05,72.4285 113.883,72.0952 111.5,73.5C 110.335,72.5089 109.168,71.5089 108,70.5C 106.418,72.0288 104.585,72.5288 102.5,72C 101.794,69.4169 100.461,67.2503 98.5,65.5C 99.8889,62.6582 99.2222,60.3249 96.5,58.5C 94.1912,59.9327 92.6912,59.266 92,56.5C 88.6306,60.7408 86.7973,65.5741 86.5,71C 80.2757,73.1487 74.4424,72.3154 69,68.5C 67.2859,69.9255 65.9525,69.5922 65,67.5C 65.9266,62.042 66.5933,56.7087 67,51.5C 67.7485,49.6675 68.7485,48.0009 70,46.5C 72.6748,35.8141 75.3414,25.1474 78,14.5C 78.7845,12.714 79.9512,11.214 81.5,10C 84.5081,8.34809 87.5081,6.84809 90.5,5.5 Z M 92.5,33.5 C 94.471,35.1524 96.8044,36.3191 99.5,37C 98.3816,38.0736 97.3816,39.2402 96.5,40.5C 93.013,39.4783 91.6797,37.145 92.5,33.5 Z"/></g>
<g><path style="opacity:0.918" fill="#000000" d="M 66.5,22.5 C 68.5,22.5 70.5,22.5 72.5,22.5C 73.5,27.5 71.5,29.5 66.5,28.5C 66.5,26.5 66.5,24.5 66.5,22.5 Z"/></g>
<g><path style="opacity:0.888" fill="#000000" d="M 331.5,42.5 C 333.167,42.5 334.833,42.5 336.5,42.5C 336.5,44.1667 336.5,45.8333 336.5,47.5C 332.5,48.1667 330.833,46.5 331.5,42.5 Z"/></g>
<g><path style="opacity:0.836" fill="#000000" d="M 224.5,60.5 C 225.833,60.5 227.167,60.5 228.5,60.5C 228.5,61.8333 228.5,63.1667 228.5,64.5C 225.5,64.8333 224.167,63.5 224.5,60.5 Z"/></g>
</svg>
